<svg xmlns="http://www.w3.org/2000/svg" viewBox="0 0 18.55 8.4"><defs><style>.cls-1{fill:#fff;}</style></defs><title>334</title><g id="Layer_2" data-name="Layer 2"><g id="Layer_1-2" data-name="Layer 1"><path class="cls-1" d="M3.18,4.13a2,2,0,0,1,1.68,2C4.86,7.57,4,8.4,2.34,8.4A4.55,4.55,0,0,1,0,7.84l.24-.66a3.87,3.87,0,0,0,2,.52C3.86,7.7,4,6.63,4,6.09c0-.88-.56-1.56-1.92-1.56H1.27V3.87h.82A1.64,1.64,0,0,0,3.85,2.24,1.46,1.46,0,0,0,2.23.68,3.49,3.49,0,0,0,.42,1.2L.2.56A4.55,4.55,0,0,1,2.39,0,2,2,0,0,1,4.63,2.12a2,2,0,0,1-1.45,2Z"/><path class="cls-1" d="M6.42,3.51A.45.45,0,0,1,6.9,4a.49.49,0,1,1-1,0A.45.45,0,0,1,6.42,3.51Zm0,3.88a.45.45,0,0,1,.48.48.49.49,0,1,1-1,0A.45.45,0,0,1,6.42,7.39Z"/><path class="cls-1" d="M10.77,4.13a2,2,0,0,1,1.68,2c0,1.42-.85,2.25-2.52,2.25A4.52,4.52,0,0,1,7.6,7.84l.24-.66a3.87,3.87,0,0,0,2,.52c1.61,0,1.79-1.07,1.79-1.61,0-.88-.57-1.56-1.92-1.56H8.87V3.87h.81a1.65,1.65,0,0,0,1.77-1.63A1.46,1.46,0,0,0,9.83.68,3.43,3.43,0,0,0,8,1.2L7.8.56A4.51,4.51,0,0,1,10,0a2,2,0,0,1,2.25,2.12,2,2,0,0,1-1.46,2Z"/><path class="cls-1" d="M17.58.12V5.41h1v.71h-1V8.28h-.79V6.12H13.34V5.41L16.61.12Zm-.79,5.29V1.06h0l-1,1.65-1.64,2.7Z"/></g></g></svg>