<svg xmlns="http://www.w3.org/2000/svg" viewBox="0 0 1471.94 520.87"><defs><style>.cls-1{fill:#fff;}</style></defs><title>wave</title><g id="Layer_2" data-name="Layer 2"><g id="Layer_1-2" data-name="Layer 1"><path d="M0,520.87V0H1471.94V520.87Z"/><path class="cls-1" d="M647.32,316.51V258.79h.81v54h1c0-7-.07-14.06.06-21.08,0-1.37-1.08-3.27,1.12-4.12l-.11-.1q0,97.64.07,195.26c0,.77-.11,1.54-.18,2.45-1.4-.71-.94-1.76-.93-2.56.66-35.47-1.49-70.91-1-106.37.23-18.32.06-36.65,0-55,0-1.61.91-3.53-.87-4.88Z"/><path class="cls-1" d="M658.72,253.83c2.29,1.23,1.13,3.39,1.13,5,.09,30.92,0,61.85.11,92.78,0,1.79-.86,3.85.95,5.37l-.11-.09c0,32.94.82,65.92-.22,98.83-.59,18.4.2,36.82-.92,55.25-1.39-.64-.87-1.8-.87-2.69q0-127.3,0-254.6Z"/><path class="cls-1" d="M658.83,253.73c-1.91-1.47-1-3.55-1-5.31q-.09-63.27-.09-126.53c0-1.79.9-3.87-1-5.37l.1.09c-.25-36.24-.19-72.47,1.3-108.85,1.27,1.08.72,2.39.72,3.5q0,119.61,0,239.2c0,1.12-.14,2.24-.21,3.36Z"/><path class="cls-1" d="M742,124.24c-1.89,1.69-1,3.91-1,5.86q-.07,97.05-.1,194.08c0,1.9,1.1,4.16-1,5.72l.08.11q-.06-44.08-.12-88.17c0-38.39-.82-76.81.23-115.17,1-36.57.21-73.13.74-109.69a2.54,2.54,0,0,1,1.08-2.31V124.34Z"/><path class="cls-1" d="M684.1,248.66c-1.72,1.15-1,2.92-1,4.41-.07,9.31-.16,18.62,0,27.92.63,39.44-1.61,78.84-1,118.27A3.17,3.17,0,0,1,681,402V294.27l-.1.09c1.46-.82,1-2.24,1-3.45.06-3.2.07-6.41,0-9.62-.67-39.42,1.57-78.81,1-118.23a3,3,0,0,1,1.11-2.77v88.46Z"/><path class="cls-1" d="M759.21,281.78l-.12-118.52c0-16.86-.63-33.75.14-50.58,1.45-31.91.42-63.81.84-95.71a2.52,2.52,0,0,1,1.07-2.3V154.24l.11-.1c-1.87,1.51-1,3.59-1,5.38-.07,39,0,77.95-.1,116.92,0,1.73,1,3.85-1.06,5.23Z"/><path class="cls-1" d="M777.5,262.29V84.76c1.49.8,1,1.85,1,2.66-.67,37.88,1.47,75.73,1,113.61-.27,23.62-.07,47.25-.08,70.87l.1-.09c-2.23-1-.82-2.92-1.19-4.39-.44-1.72.82-3.77-1-5.22Z"/><path class="cls-1" d="M739.84,329.9q0,52,.08,104c0,.28-.21.57-.71.86-.42-49.15,0-98.31-2-147.45v16.23H736V254.7l-.1.09c2.08-4.9,2-10.09,2-15.27,0-3,0-6,0-10,1.64,2.57,1.12,4.36,1.12,6.05,0,29.65,0,59.31.07,89,0,1.8-.84,3.85.86,5.43Z"/><path class="cls-1" d="M752.42,220.81V65.46c1.49.81,1.05,1.86,1,2.67-.67,37.88,1.47,75.73,1,113.61-.26,23-.07,46-.08,68.94l.1-.09c-2.28-.78-1.13-2.69-1.16-4-.12-7.16,0-14.32-.09-21.48,0-1.47.72-3.22-1-4.37Z"/><path class="cls-1" d="M652.24,183.08c-1.87,1.51-1,3.59-1,5.37-.07,31.25,0,62.49-.1,93.74,0,1.75,1,3.84-1,5.29l.11.09c-.07-1.27-.2-2.55-.21-3.83q0-93.93,0-187.86c0-1.4-.42-2.88.77-4.68,1.06,31,1.7,61.47,1.26,92Z"/><path class="cls-1" d="M772.82,185c-1.87,1.51-1,3.59-1,5.38q-.09,78.24-.1,156.47c0,1.73,1,3.85-1,5.24l.09.11q-.07-59-.13-118c0-14.29-.63-28.62.13-42.87,1.57-29.33.36-58.67.84-88a1.93,1.93,0,0,1,1.08-1.83v83.62Z"/><path class="cls-1" d="M775.43,331c1.81-1.32,1-3.25,1-4.88.06-19.68,0-39.36.09-59,0-1.6-1-3.55,1-4.8l-.11-.1c.07,1.27.2,2.55.2,3.83q0,85.26,0,170.51a16.25,16.25,0,0,1-.5,4.2c-1.35-36.61-2-73.2-1.56-109.81Z"/><path class="cls-1" d="M670.28,285.68c2.27.78,1.13,2.69,1.15,4,.12,8.44,0,16.89.1,25.34,0,1.48-.72,3.23,1,4.38l-.1-.1V447.11c-1.64-2-1-3.57-1.06-5-.05-14.94.57-29.92-.15-44.83-1.8-37.22-.3-74.44-.81-111.66Z"/><path class="cls-1" d="M768.7,244.18c2.28,1.24,1.12,3.39,1.12,5,.09,32.51,0,65,.11,97.55,0,1.8-.85,3.85.87,5.42l-.09-.1v84c-1.48-1.06-1-2.25-1-3.22.65-51.38-1.59-102.74-1-154.12.13-11.57.06-23.14.08-34.71Z"/><path class="cls-1" d="M761.92,340.66c2.28.79,1.14,2.7,1.15,4,.11,9.89,0,19.78.11,29.67,0,1.63-.83,3.55,1,4.87l-.11-.1V478c-1.64-2-1-3.57-1.06-5-.05-12.86.58-25.75-.15-38.56-1.79-31.27-.29-62.55-.81-93.82Z"/><path class="cls-1" d="M761.14,154.24c1.58.76,1,2.22,1,3.39q0,90.57,0,181.12a15.74,15.74,0,0,1-.22,1.91l.09-.09c-1.53-.79-1-2.24-1-3.42q0-90.78,0-181.57a11.67,11.67,0,0,1,.19-1.43Z"/><path class="cls-1" d="M755.19,391.77c1.79-1.33,1-3.25,1-4.88.06-20.33,0-40.66.09-61,0-1.58-1-3.56,1-4.75l-.08-.11c0,32.1.76,64.22-.15,96.29-.48,16.81-.19,33.6-.68,50.39a5.23,5.23,0,0,1-1.1,3.75V391.68Z"/><path class="cls-1" d="M679.15,283.7c0-20.88-.79-41.8.16-62.63.53-11.62,0-23.28.91-35.16,1.31,1.17.9,2.35.9,3.39q0,51.33,0,102.66c0,.8-.14,1.59-.22,2.39l.09-.09c-1.91-1.66-.6-3.88-1-5.8-.34-1.61.87-3.52-.91-4.86Z"/><path class="cls-1" d="M655,284.59c0,24.58.77,49.19-.21,73.73-.56,13.9.05,27.81-1.8,41.69v-93.2l-.09.09c2.25-5.62.38-11.49,1.07-17.2.2-1.68-1.12-3.78,1.13-5Z"/><path class="cls-1" d="M672.5,319.43c-.07-6.57-.21-13.15-.22-19.72q0-51.27,0-102.54V192a565.94,565.94,0,0,1,2.05,62.56l.11-.09c-1.79,1.32-1,3.25-1,4.88-.06,18.38,0,36.77-.09,55.16,0,1.6.93,3.54-1,4.82Z"/><path class="cls-1" d="M630.05,281.48c-2.28-1.24-1.12-3.39-1.12-5.05-.09-33.5,0-67-.11-100.5,0-1.79.86-3.86-1-5.37l.1.09V114.6c1.46.89,1,1.92,1,2.76.35,34.33.74,68.66,1,103,.13,20.41,0,40.81,0,61.22Z"/><path class="cls-1" d="M750.35,366.71c1.89-1.49,1-3.58,1-5.37q.09-67.62.09-135.23c0-1.76-.95-3.84,1-5.29l-.11-.1c.07,1.91.2,3.83.2,5.75q0,72.63,0,145.25v6.34c-2.49-4.24-2.15-7.87-2.08-11.44Z"/><path class="cls-1" d="M709,275.78V203.47c1.62,3,1,5,1.06,7,.63,36.6,1.35,73.19,1,109.79,0,1.93-.08,3.86-.12,5.78L711,326c-2.13-1.15-1-3.15-1-4.69-.11-13.57,0-27.15-.11-40.73,0-1.63.82-3.55-1-4.87Z"/><path class="cls-1" d="M687,281.48c-1.7,1.16-1,2.93-1,4.42-.09,6.42-.17,12.84,0,19.26.28,10.85-1.93,21.56-.73,33.27a4.36,4.36,0,0,1-1.39-4.05q0-41.65,0-83.32c0-.8.15-1.59.23-2.39l-.1.09c1.85,1.3.93,3.22,1,4.84.11,7.8,0,15.61.81,23.42V259.66h1.11v21.92Z"/><path class="cls-1" d="M755.29,391.68c-1.57-.76-1-2.23-1-3.4q0-67.89,0-135.77a15.68,15.68,0,0,1,.22-1.92l-.1.09c1.53.79,1,2.24,1,3.42q0,68.11,0,136.24a10.2,10.2,0,0,1-.19,1.43Z"/><path class="cls-1" d="M749.67,275.69c-2.76-1.09.23-4.36-2.11-5.61l.08.11c0-17-.77-34,.14-51,.53-9.69.06-19.41,1.79-29.06v85.63Z"/><path class="cls-1" d="M759.13,281.67v89.45c-1.41-2.19-1-3.73-1-5.14,0-13.33,0-26.65-.06-40,0-1.65.78-3.55-.87-5l.08.11v-50.1c2.05,4.11-.28,7.81,1.92,10.73Z"/><path class="cls-1" d="M720.75,249.63c-2.34-1-1.13-3-1.14-4.53-.11-18.08,0-36.15-.11-54.23,0-1.63.82-3.55-1-4.88l.1.1V127.42c1.51,2.85,1,5.82,1.05,8.73.07,10.76-.57,21.57.14,32.28,1.79,27.1.31,54.2.81,81.29Z"/><path class="cls-1" d="M781.4,287.57c0-21.84-.81-43.71.17-65.51.55-12.26-.1-24.55,1.71-36.79V253.8l.08-.12c-1.71,1.15-.87,2.9-.89,4.35-.09,8.4,0,16.81-.09,25.21,0,1.41.9,3.23-1.06,4.22Z"/><path class="cls-1" d="M729.32,224.87c-.05-16.36-.76-32.76.13-49.08.51-9.36.14-18.77,1.51-28.1v78.6l-1.73-1.53Z"/><path class="cls-1" d="M691.79,238.07c-1.79,1.32-1,3.25-1,4.88-.07,20,0,40-.11,60,0,1.5,1.17,3.54-1.11,4.59l.11.1c0-25.23-.78-50.48.2-75.67.55-14.22,0-28.45,1.77-42.65v48.84Z"/><path class="cls-1" d="M741.85,124.34c1.71.93,1,2.57,1,3.88q0,62.21,0,124.41l.1-.09c-2-.45-1.15-2.07-1.15-3.13q-.06-61.87,0-123.73a10.15,10.15,0,0,1,.19-1.44Z"/><path class="cls-1" d="M814.21,292.32V349.5c-1.51-1.26-1.08-2.45-1.07-3.47.13-13.94-1.66-27.83-1-41.79,0-1.19.49-2.63-1-3.46l.11.1V271.27l1.07,0c0,4.9,0,9.79,0,14.69,0,2.39-.09,4.76,2,6.5Z"/><path class="cls-1" d="M794.76,287.57c1.68-1.15.93-2.9,1-4.37.09-7.16,0-14.31.1-21.47,0-1.34-1.1-3.23,1.14-4l-.11-.09q.69,46.62-2,93.23V287.48Z"/><path class="cls-1" d="M640.57,308.72c.42,28.19-.19,56.37-2,84.54V326.1l-.09.09c2.2-4.14.38-8.62,1.07-12.87.24-1.51-1.16-3.51,1.15-4.5Z"/><path class="cls-1" d="M785.2,238.09c0,17.64.77,35.32-.14,52.92-.54,10.33-.1,20.69-1.7,31V253.68l-.08.12c1.88-3.53.39-7.33.92-11,.23-1.56-1-3.5,1.08-4.64Z"/><path class="cls-1" d="M652.14,183.18c1.57.76,1,2.22,1,3.39q0,59.2,0,118.42a15.74,15.74,0,0,1-.22,1.91l.1-.09c-1.53-.79-1-2.24-1-3.42q0-59.43,0-118.87a10,10,0,0,1,.19-1.43Z"/><path class="cls-1" d="M717.73,305.9q-.06-58.47-.09-116.92c0-1-.43-2.32,1-2.89l-.11-.1c.07,17.65.17,35.29.2,52.94q.06,31.05,0,62.1c0,1.58,1,3.57-1.06,4.76Z"/><path class="cls-1" d="M717.65,305.79v58.66c-1.74-27.88-2.3-55.77-1.93-83.68l-.1.09c2.26.77,1.11,2.66,1.15,4,.14,5.54,0,11.08.1,16.62,0,1.48-.69,3.2.86,4.42Z"/><path class="cls-1" d="M804.51,234.32V209.41l.81,0v17.05c2.5-3.85,1.8-7.62,3.12-11.15V269l.1-.09c-2.28-.78-1.14-2.7-1.15-4-.12-8.28-.06-16.56-.62-24.9-.16,2-.31,4-.54,7-1.91-4.8.62-9.1-1.83-12.74Z"/><path class="cls-1" d="M645.49,303.67c-2-.67-1.15-2.39-1.15-3.61q0-54.51,0-109l-.11.09c2,.67,1.15,2.39,1.15,3.61q0,54.51,0,109Z"/><path class="cls-1" d="M644.36,191c-1.9-1.27-1-3.21-1-4.81-.08-15.5,0-31-.09-46.5,0-1.63.82-3.55-1-4.87l.1.09a167.08,167.08,0,0,1,1.84-32.43v88.61Z"/><path class="cls-1" d="M768.8,244.09c-2.07-1.79-.77-4.14-1-6.22-.68-6.66,1.18-13.47-1-20.07l.11.1v-56c.58.4,1,.53,1,.67.39,27.19,1.88,54.37.88,81.58Z"/><path class="cls-1" d="M665.58,163.88c.23-25-1-49.95,2-74.91q0,11.18,0,22.35l0,22.64.1-.09c-1.71,1.13-1,2.89-1,4.37-.08,7.16,0,14.33-.09,21.49,0,1.35,1.1,3.25-1.14,4.05Z"/><path class="cls-1" d="M645.38,303.76c2.09,2.26.54,5,1,7.48.34,1.75-.79,3.76.91,5.27l-.08-.11V375c-1.51-23.75-2.64-47.51-1.75-71.31Z"/><path class="cls-1" d="M665.47,163.78c.08,15.72.19,31.44.22,47.15q.06,26.23-.05,52.46c0,1.5,1.17,3.55-1.11,4.59l.1.1q0-50.4,0-100.8c0-1.17-.58-2.63,1-3.4Z"/><path class="cls-1" d="M781.32,287.46c-.13,15.43,1.15,30.91-1.73,46.27V271.82l-.1.09c2,2.79.52,6,1,8.95.37,2.23-.91,4.68.9,6.71Z"/><path class="cls-1" d="M794.86,287.48c-2.48-1.32.34-4.43-2-5.81l.09.11c-.66-19.34.31-38.64,1.78-57.94v63.73Z"/><path class="cls-1" d="M668.37,226.82c1.93,2,2,4.8,2,7.17.13,17.23,0,34.45-.13,51.68l.1-.09c-2.09-4.88-1.49-10.22-1.72-15.22-.67-14.52-.21-29.09-.19-43.64Z"/><path class="cls-1" d="M591.35,302c.55,23.06-.33,46.09-2,69.13V319.33l-.1.09c2.18-4.14.36-8.6,1.05-12.85.25-1.52-1.14-3.51,1.13-4.52Z"/><path class="cls-1" d="M764.15,379.24q-.12-26.7-.23-53.41,0-20.2,0-40.43c0-1.55-.45-3.19.5-4.73,1.11,1.28.59,2.77.6,4.11q0,45,0,90c0,1.46.84,3.25-1,4.36Z"/><path class="cls-1" d="M614.45,193.78v-34a12.15,12.15,0,0,1,1,2.43c.3,31.42,1.65,62.83,1,94.26l.11-.09c-2.31-1-1.12-3.07-1.12-4.56-.11-17.76,0-35.52-.11-53.27,0-1.63.82-3.56-1-4.88Z"/><path class="cls-1" d="M640.67,308.82q-.12-32-.23-64c0-9.14-.05-18.28.06-27.43,0-1.36-1.08-3.25,1.12-4.11l-.11-.1q0,46.07,0,92.12c0,1.17.58,2.64-1,3.4Z"/><path class="cls-1" d="M613.53,257.58c.53,29.87-.27,59.72-2,89.57V314.53l-.1.09c1.81-1.32,1-3.24,1-4.87.07-15.83,0-31.67.11-47.5,0-1.5-1.17-3.54,1.11-4.58Z"/><path class="cls-1" d="M668.47,226.72c-1.57-.76-1-2.22-1-3.39q0-43.77,0-87.55a15.74,15.74,0,0,1,.22-1.91l-.1.09c.92.37,1,1.17,1,2q-.09,45.45-.2,90.88Z"/><path class="cls-1" d="M772.72,185.11c1.71.93,1,2.57,1,3.88q0,43.39,0,86.79l.11-.09c-1.45-.15-1.17-1.31-1.16-2.17q.06-44.25.19-88.5A.81.81,0,0,0,772.72,185.11Z"/><path class="cls-1" d="M749.57,275.78c1.57.76,1,2.23,1,3.39q.06,42.81,0,85.63a15.58,15.58,0,0,1-.22,1.9l.1-.09c-.92-.36-1-1.16-1-2q.09-44.46.2-88.95Z"/><path class="cls-1" d="M904.83,227.57V192q2.7,38,2,76l.1-.09c-2.19-.85-1.11-2.73-1.12-4.09-.1-10.52,0-21-.1-31.56,0-1.63.82-3.54-.95-4.87Z"/><path class="cls-1" d="M713.83,250.72V214.3a539.63,539.63,0,0,1,1.79,66.55l.1-.09c-1.75-1.11-.94-2.88-1-4.33-.09-7.15,0-14.29-.08-21.44,0-1.47.73-3.22-1-4.37Z"/><path class="cls-1" d="M708.88,275.68v71.54A65.71,65.71,0,0,1,707.06,327l-.1.1c1.79-1.33.95-3.25,1-4.87.08-13.89,0-27.78.1-41.68,0-1.59-.93-3.53,1-4.81Z"/><path class="cls-1" d="M656.79,116.52q.11,41.36.2,82.73c0,.86.29,2-1.17,2.16l.11.09q0-40.5,0-81c0-1.31-.72-3,1-3.88Z"/><path class="cls-1" d="M637.48,242.27c1.47.11,1.19,1.28,1.18,2.14q-.07,40.89-.21,81.78l.1-.09c-1.77-1.14-1-2.92-1-4.39q-.08-39.76,0-79.53Z"/><path class="cls-1" d="M655.82,201.41q.1,40.62.21,81.25c0,.81-.06,1.61-1,1.92l.11.1q-.11-40.37-.19-80.75c0-.91-.19-2,1-2.42Z"/><path class="cls-1" d="M581.63,264.32c2.1,1.33.87,3.4,1.08,5.12.66,5.7-1.18,11.56,1,17.17l-.11-.09v39.26a550,550,0,0,1-1.91-61.55Z"/><path class="cls-1" d="M712.92,326.09c-.35,13.54,1,27.15-1.91,40.59V326l-.09.09,2.1.12Z"/><path class="cls-1" d="M747.56,270.08v26.76l-.84.06V284.28c-.25,6.85-2.14,13.49-3,20.3V287.52l-.1.09c1.87-4.6.87-9.59,2-14.3.35-1.5-.4-3.15.55-4.74l1.53,1.62Z"/><path class="cls-1" d="M618.19,302.08c.35.23,1,.46,1,.71.75,18.64,1.85,37.27.65,55.94q-2.08-28.34-1.55-56.74Z"/><path class="cls-1" d="M725.44,253.72q0,37.64,0,75.28c0,1.22.84,2.93-1.14,3.61l.11.1q0-37.63,0-75.28c0-1.22-.85-2.93,1.13-3.61Z"/><path class="cls-1" d="M642.32,134.85l.21,76.43c0,.8-.07,1.61-1,1.92l.1.1q-.09-38-.19-75.93c0-.91-.18-2,1-2.43Z"/><path class="cls-1" d="M228.25,270.82H157.14v-.55h71.13Z"/><path class="cls-1" d="M713,326.18l-.21-73.54c0-.8.07-1.61,1-1.92l-.1-.1q.09,36.53.19,73c0,.91.18,2-1,2.42Z"/><path class="cls-1" d="M627,243q0-34.23,0-68.47c0-1.3-.74-2.95,1-3.86l-.11-.09q.11,35.08.18,70.17c0,.86.29,2-1.17,2.16Z"/><path class="cls-1" d="M722.39,372.48c1.79-1.32,1-3.24,1-4.86.08-10.2,0-20.4.09-30.6,0-1.44-.86-3.24,1-4.31l-.1-.09c.06,13.6.8,27.24-.05,40.79-.5,7.92-.15,15.87-1.79,23.77v-24.8Z"/><path class="cls-1" d="M566.1,285.68c2.23-5.14.4-10.55,1.06-15.78.24-1.9-1.06-4.12,1.07-5.66l-.09-.11c.37,17,.34,34.06-2,51.09V300.47q0-7.44,0-14.88Z"/><path class="cls-1" d="M850.88,296.06c-2.53-1.89-.16-4.82-1.71-7.38-.12,2.67-.23,4.95-.33,7.24l-.94,0V282.67l-.1.1c1.79-1.33.84-3.24,1-4.88a124,124,0,0,1,2-16.44v34.71Z"/><path class="cls-1" d="M935.58,284.69c1.79-1.31,1-3.26.95-4.86-.58-9.37,1.42-18.59,2.1-27.94v21l.1-.09c-1.78,1.32-.87,3.23-1,4.86-.45,8-.79,16-2.08,24.07V284.6Z"/><path class="cls-1" d="M721.72,314.26c-1.47-.11-1.19-1.28-1.19-2.14q.09-31.25.22-62.49l-.1.09c1.76,1.13,1,2.92,1,4.39q.07,30.12,0,60.24Z"/><path class="cls-1" d="M630,281.57c1.9,1.27,1,3.21,1,4.81.1,12,0,23.92.1,35.88,0,1.63-.83,3.54,1,4.87l-.11-.1c.26,3.62.29,7.2-1.81,11.36V281.48Z"/><path class="cls-1" d="M695.38,290.48c2.4.34.17,3.3,2.19,3.85l-.11-.1v36.48a243,243,0,0,1-2-40.33Z"/><path class="cls-1" d="M785.28,238.2v-28c.5.33.87.46.87.6-.19,20.44,1.92,40.85,1,61.3l.08-.11c-2-1-1-2.81-1.06-4.23-.1-8.42,0-16.84-.08-25.27,0-1.48.69-3.21-.87-4.43Z"/><path class="cls-1" d="M550.83,271.08v39.26a173.81,173.81,0,0,1-1.92-34.62l-.08.11c2.25-.85-.54-4,2.11-4.65Z"/><path class="cls-1" d="M614.34,193.69q.1,31,.21,62c0,.81-.06,1.61-1,1.92l.11.1q-.1-30.72-.19-61.46c0-.91-.19-2,1-2.42Z"/><path class="cls-1" d="M687.64,315.58c2.65-2.13-.64-5.82,2.08-7.94l-.1-.1q0,19.83,0,39.66a161.24,161.24,0,0,1-1.87-31.71Z"/><path class="cls-1" d="M727.49,201.41c-1.8,1.32-1,3.24-1,4.87-.07,14.22,0,28.43-.09,42.65,0,1.59,1,3.54-1,4.79l.11.09V196.45c2.29,1.24,1.89,3.21,1.84,5.06Z"/><path class="cls-1" d="M890.36,269.05a161.28,161.28,0,0,1,2-33.46v37.3l.1-.09c-2.4-.33-.16-3.3-2.18-3.85Z"/><path class="cls-1" d="M589.37,319.33c-1.71-.93-1-2.57-1-3.88q0-28.45,0-56.89l-.11.09c1.45.15,1.17,1.3,1.17,2.16q-.08,29.31-.2,58.61Z"/><path class="cls-1" d="M733.17,265.31v53.82a11.63,11.63,0,0,1-1.45-9.32c.91-3.79.34-7.95.35-11.95,0-9.46,0-18.92.07-28.37,0-1.35-1.11-3.26,1.14-4.08Z"/><path class="cls-1" d="M852.77,296.16a189.62,189.62,0,0,1-1.89,34.64V296.06l-.09.1,2.09.1Z"/><path class="cls-1" d="M662.77,317.36c-1.72,1.17-.87,2.94-.88,4.4-.09,10.28,0,20.56-.09,30.83,0,1.45.86,3.26-1,4.34l.11.1V306.09c2.23,3.94,2,7.65,1.78,11.38Z"/><path class="cls-1" d="M722.5,372.38c-.94-.33-1-1.14-1-1.94q.09-28.08.21-56.18l-.1.09c.92.36,1,1.16,1,2q-.09,28.08-.2,56.15Z"/><path class="cls-1" d="M814.31,292.42l-.21-56.19c0-.81.09-1.6,1-2l-.09-.13q.12,28.14.23,56.28c0,.81-.06,1.61-1,1.95Z"/><path class="cls-1" d="M662.69,317.47c1.64-1.4.85-3.28.86-4.92.07-13.23,0-26.46.09-39.69,0-1.58-.95-3.53,1-4.78l-.1-.09v53.86c-2.41-1.39-1.78-3-1.76-4.49Z"/><path class="cls-1" d="M766.76,217.8v57.25c-1.23-.92-.9-1.94-.9-2.82q0-25.47,0-50.94c0-1.17-.57-2.63,1-3.39Z"/><path class="cls-1" d="M545.86,261.54c2.57,2.58.27,5.95,1.5,8.81,1.24-1.51-.31-3.63,1.47-5.66v11.14l.08-.11c-1.45,5.39-1.41,11-2.95,16.48V261.45Z"/><path class="cls-1" d="M809.4,326c-1.27-.35-1.09-1.43-1.09-2.34q.09-27.39.22-54.78l-.1.09c1.37.62,1,1.89,1,2.93q0,27.1-.1,54.21Z"/><path class="cls-1" d="M608.64,296.08c1.62-4.69,1.11-9.75,2.8-14.47v33l.1-.09c-2.34-4.1-.14-8.61-1.39-13.42-.27,1.89-.46,3.26-.66,4.63l-.76,0V296Z"/><path class="cls-1" d="M572.07,264.35a217.1,217.1,0,0,1-2,38.26V274l-.1.09c1.88-1.62.58-3.81,1-5.68.31-1.34-1.07-3.2,1.17-4Z"/><path class="cls-1" d="M733.28,265.41q-.12-26.43-.21-52.85c0-.91-.18-2,1.08-2.34l-.08-.11q.06,26.14.1,52.3c0,1,.41,2.31-1,2.9Z"/><path class="cls-1" d="M901.92,258.42v-10l1.87,3.27c0-7.08-.06-13.45.05-19.81,0-1.45-.86-3.25,1-4.33l-.1-.1v38c-1.36-3-.63-5.77-2.92-7.16Z"/><path class="cls-1" d="M990.67,250.7V236.38c1.4,5.72.36,11.63,3.15,18.27a.86.86,0,0,1,.73-1.39v21.61l.1-.09c-2.85-4.21.05-8.95-1.72-13.88-.28-.29-.25,1.19-.95.93-1.49-3.53,1-7.72-1.42-11.23Z"/><path class="cls-1" d="M736,254.7c-1.9-1.27-1-3.21-1-4.8-.1-11.62,0-23.25-.09-34.87,0-1.64.77-3.53-.87-4.92l.08.11c-.21-1.89-.5-3.8,1.75-5.09v49.66Z"/><path class="cls-1" d="M963.66,242V218.09a265.32,265.32,0,0,1,2,42.24l.09-.09c-2.33-1-.93-3-1.16-4.48-.7-4.58,1.13-9.36-1.06-13.84Z"/><path class="cls-1" d="M828.68,285.57V323a80.51,80.51,0,0,1-2-23l-.1.09c2.22-3.14.39-6.71,1.07-10,.31-1.5-1.15-3.5,1.16-4.48Z"/><path class="cls-1" d="M691.69,238.16c1.9,1.29,1,3.23,1,4.84.1,11.4,0,22.8.1,34.2,0,1.46-.84,3.23.88,4.4l-.09-.11a6.74,6.74,0,0,1-1.76,6.22V238.07Z"/><path class="cls-1" d="M727.38,201.51c2,2.13.74,4.74,1,7.12.59,5.39-1,10.92.94,16.24l-.09-.11v25.81c-.27-16.4-2.94-32.72-1.75-49.15Z"/><path class="cls-1" d="M616.44,256.49a1.4,1.4,0,0,1,1,1.47c-.78,14.72,1.8,29.38.77,44.11l.1-.09c-.32-.49-.89-1-.92-1.49-.85-14.68-1.57-29.37-.82-44.09Z"/><path class="cls-1" d="M803.52,285.43c0-15.75,0-31.5,0-47.25,0-1.3-.75-3,1-3.86l-.11-.1q.11,24.48.19,49c0,.86.28,2-1.17,2.15Z"/><path class="cls-1" d="M894.51,272.76c.67-15.4-2.21-30.68-.68-46C894,242.09,896.34,257.4,894.51,272.76Z"/><path class="cls-1" d="M679.07,283.6v31.63c-.27-11.88-2.76-23.66-1.78-36,1.66,1.44.14,3.6,1.86,4.48Z"/><path class="cls-1" d="M633.79,227.67c0,15.46.08,30.91,0,46.37,0,1.21.87,2.92-1.15,3.57l.11.1c0-15.43-.06-30.87,0-46.3,0-1.23-.86-2.94,1.13-3.64Z"/><path class="cls-1" d="M608.73,296c-1.91,5.41-.17,11.22-1.85,16.66-.27.86.3,1.92-1.11,3.21V292.32l-.1.09c1-.05,2.09.16,2-1.59-.05-1.45-.63-3.09.94-4.88v10.14Z"/><path class="cls-1" d="M625.11,311.6v18.23A60.83,60.83,0,0,1,622.44,316c-.09,2-.19,4-.28,5.95l-.95,0V311.61l-.11.09c1.85-.93.41-2.95,1.41-4.22,2,.68-1.11,4.73,2.71,4.21Z"/><path class="cls-1" d="M544.05,256.51a108.64,108.64,0,0,1,1.82-26q0,15.51,0,31l.1-.09c-2.25-1.05.17-4-2-5Z"/><path class="cls-1" d="M552.9,243.84c-1.8,1.3-1,3.21-1,4.84-.11,6,0,12.07-.09,18.11,0,1.44.85,3.23-1,4.29l.11.1V230.5a30.42,30.42,0,0,1,1.86,13.43Z"/><path class="cls-1" d="M632.67,277.61l.21,47.5c0,.8-.07,1.61-1,1.92l.11.09q-.11-23.49-.19-47c0-.91-.19-2,1-2.42Z"/><path class="cls-1" d="M797,257.69c-.07-10.85-.18-21.7-.14-32.55a5,5,0,0,1,2-3.35v12.49l.1-.09c-2.34,5.45-.33,11.17-1.06,16.72-.29,2.23,1.09,4.72-1,6.68Z"/><path class="cls-1" d="M897.17,293.26a237.57,237.57,0,0,1,1.9-40.4V272l.1-.08c-2.16,5.28-.36,10.81-1,16.19-.21,1.71,1,3.78-1.07,5.11Z"/><path class="cls-1" d="M864.3,261.31V244.2a242.45,242.45,0,0,1,1.93,41.35l.09-.09c-2.1-1.34-.88-3.41-1.08-5.14-.73-6.34,1.27-12.84-1-19.1Z"/><path class="cls-1" d="M584.61,240.23c0,14.14.06,28.28,0,42.42,0,1.31.75,3-1,3.86l.1.1q-.09-22.07-.18-44.13c0-.86-.28-2,1.17-2.15Z"/><path class="cls-1" d="M789.08,264.23V236.39a86.21,86.21,0,0,1,2,23.94l.1-.09c-2,.57.14,3.5-2.2,3.89Z"/><path class="cls-1" d="M792.89,281.67v19.07c-.86-13.5-2.87-26.94-1.72-40.5l-.1.09c2,2.82.58,6,1,9,.57,4.12-1.09,8.41.92,12.43Z"/><path class="cls-1" d="M698.38,249.8q.06,20.79.1,41.57c0,1,.41,2.3-1,2.86l.1.1q-.09-21.09-.18-42.17c0-.88-.26-2,1.1-2.27Z"/><path class="cls-1" d="M570.08,274c-2.72-2.88.58-6.94-1.94-9.86l.09.11A54.77,54.77,0,0,1,570,245v29.1Z"/><path class="cls-1" d="M977.2,276.86V296.1c-1.17-2.91-1.29-6-2.94-8.63l.08.1v-11.8l.7-.13.57,3.69c1.12-.49-.22-2.54,1.69-2.38Z"/><path class="cls-1" d="M989.75,281.69v14.23c-1.92-4-.14-8.46-1.71-12.61-2,.59-.24,2.81-2.19,3.53v-6.1l-.11.1c2-2.67.45-6.4,2.72-9,1.38,3.2-.94,6.9,1.4,10Z"/><path class="cls-1" d="M828.78,285.67c-.07-13.43-.16-26.86-.2-40.3,0-.85-.29-2,1.16-2.15l-.1-.1c0,12.86.06,25.71,0,38.57,0,1.31.72,2.94-1,3.88Z"/><path class="cls-1" d="M774.46,288.57c1.47.11,1.19,1.28,1.18,2.13q-.06,20.16-.21,40.31l.1-.09c-1.76-1.13-.95-2.91-1-4.38-.06-12.69,0-25.37,0-38.06Z"/><path class="cls-1" d="M787.13,272.13c2.39-2.2-.68-5.76,2-7.9l-.1-.09q0,14,0,28.1A62.19,62.19,0,0,1,787.21,272Z"/><path class="cls-1" d="M853.74,253.72c0,13,.06,26,0,39.06,0,1.17.6,2.64-1,3.38l.1.1q-.09-20.13-.18-40.27c0-.86-.28-2,1.15-2.17Z"/><path class="cls-1" d="M579.72,264.2c-.06-6.94-.12-13.88,0-20.8l1.89.1v20.82l.09-.09-2.1-.12Z"/><path class="cls-1" d="M484.39,264.11c-1.79,1.32-1.07,3.27-.94,4.86.46,5.89-1.36,11.54-2.07,17.38V273l-.09.09c1.74-4.73.71-9.82,1.87-14.64.28-1.16,0-2.45.4-3.68,1.25,3.11.62,6.32.73,9.48Z"/><path class="cls-1" d="M839.09,283.75c2-2,.58-4.47,1-6.67.37-1.7-1-3.78,1.1-5.12l-.08-.11a126.07,126.07,0,0,1-2,29.87V283.66Z"/><path class="cls-1" d="M892.34,272.89c1.19.45,1,1.51,1,2.42q0,17.26,0,34.53a2,2,0,0,1-.89,1.64V272.8Z"/><path class="cls-1" d="M576.71,297.25c2.83,1.12-.25,4.5,2.2,5.76l-.1-.09v19c-2.68-8.13-1.94-16.48-2-24.78Z"/><path class="cls-1" d="M579.62,264.11q.11,18.43.2,36.89c0,.8-.06,1.6-1,1.91l.11.1q-.09-18.19-.19-36.39c0-.91-.18-2,1-2.41Z"/><path class="cls-1" d="M864.19,261.22v18.69c-1.36.08-.62-1.11-1.27-1.68-1,.36.25,2.63-1.6,2.29l.1.1V266.8c.86,1.52,1.18,2.1,1.55,2.76,1.08-2.75-.9-5.83,1.33-8.24Z"/><path class="cls-1" d="M969.42,267.16c1.56-4,1.56-8.32,3-12.47v10.48l.1-.09c-1.93,4.67-.74,9.88-3,15.8V267.05Z"/><path class="cls-1" d="M469.92,262.19c-2,1.79-.55,4.13-1,6.17-.35,1.54,1,3.48-1.09,4.62l.09.11a107.34,107.34,0,0,1,1.91-27.95v17.14Z"/><path class="cls-1" d="M960.66,284.69c1.78-1.27.64-3.16,1-4.73.33-1.33-1-3.18,1.16-4l-.11-.09a103.64,103.64,0,0,1-2,26.71v-18Z"/><path class="cls-1" d="M700.47,247.72c-1.13.25-.74,2-2.09,2.08l.1.09a66.92,66.92,0,0,1,1.89-22.15v20.07Z"/><path class="cls-1" d="M704.14,260.4c2,1,1.05,2.85,1.06,4.27.08,10.77,0,21.54,0,32.31l.1-.09c-2-.4-1.16-2-1.17-3.08,0-11.17,0-22.34.08-33.52Z"/><path class="cls-1" d="M800.8,296c-2-.66-1.14-2.36-1.14-3.57-.06-10.95,0-21.91,0-32.86l-.11.09c2,.66,1.14,2.37,1.15,3.57.06,11,0,21.91,0,32.86Z"/><path class="cls-1" d="M906.8,268.08a19.78,19.78,0,0,1,2,8.46c.3,5.59-1.66,11-1.92,16.55q0-12.54,0-25.1Z"/><path class="cls-1" d="M996.51,276.87a66.51,66.51,0,0,1-1.86,20.19V274.78l-.1.09,2.06,2.1Z"/><path class="cls-1" d="M833.33,273.12l2.2,1-.1-.1a60.18,60.18,0,0,1-2,20V273Z"/><path class="cls-1" d="M972.41,265.17c2.17,2.46.64,5.38,1,8.07.63,4.75-1.06,9.66.94,14.33l-.08-.11v11.39a151.65,151.65,0,0,1-1.75-33.77Z"/><path class="cls-1" d="M626.08,275.91c0,10.77.07,21.54,0,32.31,0,1.16.6,2.64-1,3.37l.1.1c-.06-11.17-.14-22.34-.18-33.51,0-.86-.28-2,1.15-2.18Z"/><path class="cls-1" d="M952.15,283.64v17.23a82.57,82.57,0,0,1-2-24l-.11.1c3,1.52-.39,5.11,2.21,6.76Z"/><path class="cls-1" d="M742.82,252.63c.93.34,1,1.14,1,1.94q-.11,16.51-.22,33l.1-.09c-.92-.36-1-1.15-1-2q.09-16.5.2-33Z"/><path class="cls-1" d="M439,281.71V296a125.74,125.74,0,0,1-2-28.76l-.1.09c2.56,1.51.7,3.93,1.17,5.88.67,2.8-1.06,5.92,1.06,8.58Z"/><path class="cls-1" d="M887.61,276.66c-2.88-4.17,0-8.88-1.38-12.7-3.13-4-1.2-8.3-1.61-12.24l-.09.09c2.2,1.24.51,3.43,1.75,5,2.33,6.49.85,13.31,1.23,20Z"/><path class="cls-1" d="M809.32,326.15c2-6.61.32-13.39.93-20,.16-1.75-.93-3.8,1-5.22l-.1-.09c0,10,0,20.12,0,30.38-2.25-1.34-2-3.25-1.75-5.13Z"/><path class="cls-1" d="M855.79,229.39c-2.23,5.62-.39,11.48-1,17.19-.27,2.39,1,5-1,7.14l.11.09V224.42c2.28,1.25,1.89,3.22,1.84,5.06Z"/><path class="cls-1" d="M686.87,281.57c.93.34,1,1.14,1,1.94q-.09,16-.21,32.07l.1-.09c-.92-.36-1-1.16-1-2q.09-16,.2-32Z"/><path class="cls-1" d="M963.55,241.92l.21,32.07c0,.8-.07,1.6-1,1.91l.11.1q-.11-15.78-.19-31.57c0-.91-.19-2,1-2.41Z"/><path class="cls-1" d="M901,274.94a47.22,47.22,0,0,1-1.84,17.3q0-10.19,0-20.37l-.1.09c1.74.32.44,2.66,2,3.08Z"/><path class="cls-1" d="M938.63,272.9c2.46,1.4-.34,4.59,2,6l-.1-.09c.3,5.2.07,10.36-1.84,15.38V272.81Z"/><path class="cls-1" d="M395.41,276c2.06-4.88.13-10.26,1.91-15.18a18.3,18.3,0,0,1,.51-2.24c1,3.18.57,6.4.54,9.61l.09-.09c-.77,5.16-1.54,10.31-2.43,16.31-1-3.34-.51-5.94-.52-8.5Z"/><path class="cls-1" d="M626.88,242.89q.11,15.54.21,31.1c0,.8-.07,1.6-1,1.91l.11.1q-.1-15.3-.19-30.6c0-.91-.18-2,1-2.42Z"/><path class="cls-1" d="M702.3,264.42c-.92-7.47,1.2-14.76,1.84-22.19V260.4l.09-.11c-1.84.76.16,3.43-2,4Z"/><path class="cls-1" d="M592.33,270.14c0,9.31.07,18.63,0,27.95,0,1.3.75,3-1,3.86l.1.09c-.06-9.88-.14-19.77-.18-29.66,0-.86-.28-2,1.17-2.15Z"/><path class="cls-1" d="M636.62,210.23c1.27.35,1.09,1.43,1.09,2.33q-.09,14.85-.23,29.71l.1-.09c-1.36-.62-1-1.88-1-2.92,0-9.71.06-19.43.1-29.14Z"/><path class="cls-1" d="M596,253.82c2,.45,1.14,2.05,1.15,3.12,0,9.24,0,18.49-.08,27.73l.08-.11c-1.84-.81-1.06-2.47-1.06-3.73-.06-9,0-18.07,0-27.1Z"/><path class="cls-1" d="M636.7,210.12c-2.53,2.06.88,5.75-2.1,7.69l.11.09c-.55-7.67.53-15.24,1.91-22.87v15.2Z"/><path class="cls-1" d="M990.56,250.6q.11,14.6.21,29.18c0,.8-.07,1.6-1,1.91l.11.1q-.11-14.34-.19-28.68c0-.91-.18-2,1-2.41Z"/><path class="cls-1" d="M605.77,292.32c-2.3-4-.49-8.3-1-12.44a48.93,48.93,0,0,1,0-5.82c-3-.68-1.69-3.07-1.88-4.89l-.1.09a3.24,3.24,0,0,0,2.9-.86v24Z"/><path class="cls-1" d="M597.09,284.67c2.08-2.63,0-5.91,1.57-9.22,1.73,8.52-1.5,16.34-1.49,24.3V284.56Z"/><path class="cls-1" d="M979.25,270.88c-2.39,1.41.45,4.61-2,6l.1.09V256.39A33,33,0,0,1,979.15,271Z"/><path class="cls-1" d="M819.92,259.38V236.52a15.06,15.06,0,0,1,2,9.34l.1-.09c-2.07,2.82-.46,6.06-1.06,9-.31,1.5,1.15,3.5-1.16,4.47Z"/><path class="cls-1" d="M1068.85,275.9V287c-2.66-4.81-1-9.78-2.95-14l.09.11c-.08-2-.47-4,.46-6.57.93,3.51.65,6.82,2.51,9.5Z"/><path class="cls-1" d="M800.7,296c2.17,2.45.56,5.38,1,8,.52,3.16-1.05,6.54,1,9.53l-.11-.09c.43,2.12-.33,4-1.82,6.7,0-8.71,0-16.49,0-24.28Z"/><path class="cls-1" d="M803.42,285.33q.11,13.14.2,26.28c0,.8-.06,1.6-1,1.91l.1.1c-.06-8.59-.14-17.19-.19-25.78,0-.91-.18-2,1-2.41Z"/><path class="cls-1" d="M887.51,276.76c2.68,2.13-.57,5.79,2,7.94l-.1-.09a22.61,22.61,0,0,1-1.84,11.52V276.66Z"/><path class="cls-1" d="M816.91,259.63c2,.62,1.13,2.34,1.16,3.54.12,5.07,0,10.15.09,15.22,0,1.47-.73,3.22,1,4.36l-.1-.09c.19,1.07-.17,1.88-2,2.82V259.54Z"/><path class="cls-1" d="M822.72,265.4c2.83,3.13.16,6.92,1.49,10.4,3.35,1.77.93,5.09,1.57,7.7l.1-.09c-1.45.69-1-2.91-3.06-1.09v-17Z"/><path class="cls-1" d="M815.06,234.22c2.46-1.78,2.06.41,2.06,1.6,0,7.93-.13,15.87-.21,23.81a.81.81,0,0,1,.1-.09c-2.22-5.3-.38-10.86-1-16.26-.37-3.06,1-6.31-1-9.18Z"/><path class="cls-1" d="M575.76,270.23c1.44.14,1.17,1.29,1.16,2.15,0,8.29-.13,16.58-.21,24.87l.1-.09c-1.86-1.5-.93-3.57-.95-5.35-.1-7.22,0-14.45,0-21.68Z"/><path class="cls-1" d="M398.37,268.15c1.07.76,2,.76,2.89-1.41V277l.09-.11c-2.6-1.06-1.54,1.49-2.56,2.64-.87-4-.43-7.71-.33-11.42Z"/><path class="cls-1" d="M838.42,259.29c-3-1.52.38-5.09-2.19-6.74l.11.1V240.34c2.16,6.24,2.23,12.63,2,19Z"/><path class="cls-1" d="M946.34,281.69V294a58,58,0,0,1-2-20l-.1.09c2.86,2-.44,5.68,2.16,7.73Z"/><path class="cls-1" d="M833.43,273c-1.81-1.1-1-2.89-1-4.35-.08-7.54,0-15.09,0-22.63l-.1.09c1.47.1,1.19,1.27,1.18,2.12,0,8.29-.12,16.57-.19,24.87Z"/><path class="cls-1" d="M931,246.75c-2.16,2.4-.3,5.37-1.35,8.4a4.21,4.21,0,0,1-2.78,1.24l.1.1c3.09-6.66,2.56-13.88,3.92-21v11.32Z"/><path class="cls-1" d="M700.37,247.81c2.09,2.78.53,6,1,8.95.42,2.54-.9,5.29.91,7.66l-.08-.11c.3,1.92.32,3.74-1.75,5.29V247.72Z"/><path class="cls-1" d="M897.08,293.17v14.4c-3-4.69-1.8-9.16-1.78-13.46,0-1,1.09-.87,1.87-.85Z"/><path class="cls-1" d="M856.46,249c2.28.8,1.13,2.72,1.15,4.07.12,7.24,0,14.47,0,21.71l.09-.09c-2.28-.8-1.12-2.73-1.15-4.08-.11-7.23,0-14.46,0-21.7Z"/><path class="cls-1" d="M1005.16,265.19V248.93c2.21,5.63,2.15,10.44,2,15.26l.1-.09-2.21,1Z"/><path class="cls-1" d="M1053.54,277.62c-1.92-1.22-1.9.64-3,2.71V273l-.1.09c.85-2.35,1.69-4.71,3-8.45v13.07Z"/><path class="cls-1" d="M799.67,259.52c-2-1.63-.95-3.84-1-5.75-.07-6.52.1-13.05.19-19.57l-.1.09c2,2,.89,4.49.93,6.72.12,6.2-.08,12.4-.15,18.6Z"/><path class="cls-1" d="M469.81,262.28c1.91,1.4.67,3.42,1,5.13s-.77,3.45,1,4.73l-.11-.1a16,16,0,0,1-1.82,9.49V262.19Z"/><path class="cls-1" d="M1121.84,271.06c2.42.24,1.47-2.21,2.92-3.69v5.72l.08-.11c-1.72,2.64-.57,6.12-2.91,9.23V271Z"/><path class="cls-1" d="M960.77,284.6c-2.08-1.92-.57-4.39-1-6.56-.36-1.74.85-3.77-1-5.23l.11.1c-.2-2.37-.25-4.7,1.81-7.14v18.92Z"/><path class="cls-1" d="M930.92,246.85c2.09,2,.9,4.46,1,6.69.16,5.87,0,11.74,0,17.62l.09-.11c-1.87-.81-1.07-2.48-1.07-3.75,0-6.85.1-13.7.18-20.55Z"/><path class="cls-1" d="M967.58,270.2a35,35,0,0,1,1.84-15.47v12.43l.09-.11c-1.54.44-.16,2.81-2,3Z"/><path class="cls-1" d="M510.35,296.18c-.05-7.14-.12-14.27-.1-21.4,0-.95-.58-2.35,1.14-2.64l-.11-.09c0,6.93.08,13.87,0,20.81,0,1.11.66,2.61-1.06,3.22Z"/><path class="cls-1" d="M1118.87,268.29c1.58-2.08,1.38-4.87,3-8.37v11.14l.09-.09c-2.31-.11-1.68,2.15-3,3.19v-6Z"/><path class="cls-1" d="M838.32,259.39c2.08,2,.91,4.48.95,6.7.13,5.88-.09,11.77-.17,17.65l.1-.09c-2-2.33-.87-5.12-.94-7.67-.15-5.56.08-11.12.16-16.68Z"/><path class="cls-1" d="M1014.86,254.74a42.91,42.91,0,0,1,1.94-17.36v11.37l.1-.09c-2.42,1.38.44,4.65-2.13,6Z"/><path class="cls-1" d="M560.49,254.69c0,6.79.09,13.57,0,20.35,0,1.2.85,2.9-1.15,3.54l.1.09c0-6.78-.08-13.56,0-20.34,0-1.2-.85-2.89,1.13-3.54Z"/><path class="cls-1" d="M450.48,264.22V253.83A44.33,44.33,0,0,1,452.42,271l.1-.09c-2.88-1.58.42-5.11-2.15-6.78Z"/><path class="cls-1" d="M449.56,281.71c.2,5.16.22,10.3-2,15.3V285.57l-.11.09c2-.54-.21-3.53,2.21-3.85Z"/><path class="cls-1" d="M819.82,259.28q.1,10.74.2,21.47c0,.8-.07,1.6-1,1.91l.1.09c-.06-7-.14-14-.19-21,0-.91-.18-2,1-2.41Z"/><path class="cls-1" d="M934.91,266c-1.82,5.34-1.85,10.93-3,16.46V271.05l-.09.11c2-1.79,0-4.51,1.38-6.46.95.07,1.32.7,1.6,1.41Z"/><path class="cls-1" d="M559.36,278.58v18.95a7.69,7.69,0,0,1-1.84-6.16l-.1.09c2-2.14.59-4.76,1-7.12.35-1.88-.94-4.07,1-5.66Z"/><path class="cls-1" d="M401.26,277c2.19-2.94-.06-6.49,1.81-10.7a57.11,57.11,0,0,1-1.38,19.67c-.82-3.32-.45-6.21-.34-9.08Z"/><path class="cls-1" d="M481.38,273c-1.35,0-.89-1.84-2.05-2l.1.09a25.65,25.65,0,0,1,1.86-12.54v14.59Z"/><path class="cls-1" d="M922.26,283.68a48,48,0,0,1,1.86-18.4v8.77l.08-.11c-1.77,1.44-.53,3.43-.94,5.12-.37,1.5,1,3.42-1.09,4.52Z"/><path class="cls-1" d="M917.35,252.63v-6.57c2.56,6.22,2,12.68,2,19.09l.1-.09c-2.55-1.5-.68-3.92-1.18-5.86-.56-2.18,1-4.69-1-6.67Z"/><path class="cls-1" d="M464,261.24v7.34c-2.58-2.86-1-6.63-3-9.29l.11.09c.05-1.67-.41-3.39.45-5.21.88,2.5,1.7,4.84,2.53,7.17Z"/><path class="cls-1" d="M1097.82,274c-.42-4.59-.21-9.11,1.86-13.52V271l.09-.08c-1.6.33-.16,2.79-2,2.93Z"/><path class="cls-1" d="M835.53,274.09q-.1-9.76-.2-19.54c0-.8.07-1.59,1-1.9l-.1-.1c.06,6.35.14,12.69.19,19,0,.91.18,2-1,2.4Z"/><path class="cls-1" d="M1020.62,271.08a71.28,71.28,0,0,1-1.45,19.75c-1-2.69-.44-5-.55-7.17l-.1.09c2.15-2.47.46-5.43,1.06-8.08.34-1.5-1.13-3.49,1.15-4.49Z"/><path class="cls-1" d="M967.5,270.09c.11,1.93.48,3.9-.4,5.67l-1.33,0V260.24l-.1.09c2.65,2.9-.55,6.93,1.91,9.87Z"/><path class="cls-1" d="M621.21,311.61c-2.33-6.71-.3-13.51-.1-20.27V311.7Z"/><path class="cls-1" d="M1106.5,272.13a66.37,66.37,0,0,1,1.38-19c1,3.1.44,5.69.54,8.21l.11-.1c-2,1.79-.56,4.14-1,6.18-.36,1.54,1,3.49-1.1,4.63Z"/><path class="cls-1" d="M596.13,253.73c-2.71-2.51.62-6.4-2-8.91l.1.09c.09-2.09-.61-4.33,1.84-6.12v15Z"/><path class="cls-1" d="M926.08,265.29a64.87,64.87,0,0,1-1.47,18.12c-.88-3.7-.53-6.59-.41-9.47l-.08.11c2.5-2.45-1-6.33,2.07-8.66Z"/><path class="cls-1" d="M434.06,255.52c-.27-5.48-.14-10.93,2-16.28v8.57l.11-.09c-2.68,2,.75,5.77-2.21,7.71Z"/><path class="cls-1" d="M674.32,254.56c2.33,6.71.3,13.51.1,20.27q0-10.17,0-20.36Z"/><path class="cls-1" d="M1032.32,251.57c-2.94-1.94.46-5.68-2.19-7.7l.11.09v-8.49c2.22,5.26,2.2,10.72,2,16.2Z"/><path class="cls-1" d="M706.28,318.12c-1.46-.11-1.18-1.27-1.18-2.12,0-6.37.13-12.73.21-19.1l-.09.09c2.06,3.54.7,7.41.95,11.12.23,3.35,0,6.73,0,10.1Z"/><path class="cls-1" d="M387.74,267.16c2.06,1.31.72,3.37,1.1,5.06s-.77,3.46,1,4.74l-.11-.09v7.55a43.47,43.47,0,0,1-1.91-17.37Z"/><path class="cls-1" d="M1164.31,261.31v-9.69c3.06,4.93,1.75,9.35,2,13.55l.11-.09c-2.4-.34-.17-3.32-2.21-3.86Z"/><path class="cls-1" d="M1099.68,271l2.08,1.1-.11-.1c.26,3.64.28,7.24-1.88,11.48V271Z"/><path class="cls-1" d="M513.33,258.33c-2.11,2.47-.5,5.41-1,8.07-.36,1.88,1,4.07-1,5.64l.1.1c0-5.95-1.27-12,1.16-18,1.23,1.42.58,2.89.68,4.25Z"/><path class="cls-1" d="M564.17,269.28c2.29.19,2.18,1.89,2.16,3.49-.05,4.3-.15,8.6-.23,12.9l.1-.09c-1.88-5.32-.7-11-1.93-16.39Z"/><path class="cls-1" d="M446.79,269.88l-2.16,1.05.09.09V258.73c2.37,4,2,7.65,2,11.24Z"/><path class="cls-1" d="M584.72,240.33a44.8,44.8,0,0,1,1.85-18.44v6.6l.09-.09c-2,2-.59,4.45-1,6.65-.35,1.72.88,3.76-1,5.18Z"/><path class="cls-1" d="M952.26,283.74q-.12-9.08-.21-18.13c0-.91-.18-2,1.08-2.33l-.09-.11c0,5.86.11,11.73.11,17.6,0,1,.39,2.29-1,2.87Z"/><path class="cls-1" d="M1017.85,268.94c-2-.66-1.13-2.37-1.14-3.58,0-5.56.11-11.13.19-16.69l-.1.09c2.21,4.2.53,8.7,1,13.05a69.57,69.57,0,0,1,0,7.22Z"/><path class="cls-1" d="M501.55,268.21c2.33,1.62.63,4,1.11,6s-.87,4.07,1,5.7l-.11-.1v6.57a46.09,46.09,0,0,1-1.94-18.23Z"/><path class="cls-1" d="M560.59,254.79a32.35,32.35,0,0,1,1.83-15.52v8.54l.11-.09c-2.47,1.8.49,5.19-2,7Z"/><path class="cls-1" d="M531.39,277c1.89-1.62.59-3.81,1-5.68.31-1.34-1-3.18,1.16-4l-.11-.1A64.19,64.19,0,0,1,532,285.16c-1-3.15-.44-5.74-.52-8.28Z"/><path class="cls-1" d="M1023.66,250.59c-2.24.93.32,4-2.23,4.84l.11.09c0-4.52-.72-9.12,2-14.7v9.86Z"/><path class="cls-1" d="M955.17,268c-2.56-.77-.06-3.79-2.13-4.78l.09.11a11.76,11.76,0,0,1,1.94-8.65V268Z"/><path class="cls-1" d="M444.63,270.93v12c-2.23-3.34-2-6.64-1.91-9.91l-.1.09,2.1-2.12Z"/><path class="cls-1" d="M999.51,272.81c-2.28-1-.77-3-1.16-4.45-.45-1.71.83-3.77-1-5.22l.11.1v-6.57c2.22,5.27,2.24,10.74,2,16.23Z"/><path class="cls-1" d="M392.55,268.21c.9-.14,2.09,1,2.87-.58V276l.09-.09c-1.25.29-.71-3-2.87-1.14v-6.61Z"/><path class="cls-1" d="M509.39,296.07c-2.31-2.78-.79-6.05-1-9.07-.28-3.35,0-6.74,0-10.12l-.1.1c2.3,1,1.07,3,1.11,4.5.15,4.89,0,9.79-.05,14.69Z"/><path class="cls-1" d="M983,269V257.88c2.26,4.3,2.14,8.2,2,12.09l.1-.09c-1,.34-1.45-.7-2.22-.95Z"/><path class="cls-1" d="M841.23,272c-.12-3.21-.45-6.43.25-9.95,1.86,2.73-.6,5.95,1.75,8.2l-.11-.09v8.29c-2-2.29.07-5-2-6.55Z"/><path class="cls-1" d="M822.82,265.31c-2.18-6.44-.67-13-.78-19.54l-.1.09c2.12,6.44.66,13,.78,19.54Z"/><path class="cls-1" d="M855.68,229.48c2.18,6.43.68,13,.78,19.54l.1-.09c-2.12-6.44-.66-13-.78-19.54Z"/><path class="cls-1" d="M466,270.94c-2.14-1.24-.73-3.3-1.11-4.94s.7-3.43-.93-4.76l.08.1q0-3.29,0-6.59c2,5.3,2.24,10.76,1.85,16.28Z"/><path class="cls-1" d="M494,279.57c-2.37-1.41-1-3.67-1.1-5.5-.18-4.59,0-9.19.05-13.79l-.09.11c2.29,2.56.84,5.62,1,8.42.26,3.6,0,7.23,0,10.84Z"/><path class="cls-1" d="M436.05,247.81c2.19,6.43.68,13,.79,19.54l.09-.09c-2.12-6.44-.65-13-.78-19.54Z"/><path class="cls-1" d="M1029.3,263.28c0-5.34-.11-10.68-.07-16,0-1.14-.58-2.59,1-3.29l-.11-.1c.07,5.71.15,11.41.19,17.12,0,.86.26,2-1.13,2.2Z"/><path class="cls-1" d="M465.9,271c1.38,0,.87,1.82,2,2.05l-.09-.1v10.64c-2.35-4.65-2.13-8.66-1.81-12.68Z"/><path class="cls-1" d="M493,260.28c-2.05,1,.42,4-2.09,4.81l.1.09c-.41-4.56.27-9,1.51-14.37a33.23,33.23,0,0,1,.39,9.58Z"/><path class="cls-1" d="M935.69,284.6c-2.1-6.11-.74-12.37-.79-18.57l-.1.09c2.07,6.11.71,12.37.78,18.57Z"/><path class="cls-1" d="M1004.2,283.53c0-5-.09-10-.05-15.06,0-1.13-.58-2.58,1-3.28l-.11-.1c.07,5.39.15,10.78.18,16.17,0,.86.27,2-1.13,2.18Z"/><path class="cls-1" d="M874,253.61c.22-.76.62-1.34,2-1.51V269l.1-.09c-2.5-1.54-.76-3.94-1.15-5.9-.62-3.13,1-6.53-1-9.52Z"/><path class="cls-1" d="M439.06,281.81c-.08-5.39-.17-10.79-.21-16.18,0-.86-.26-2,1.12-2.2l-.09-.09c-.44,6.11,1.36,12.34-.93,18.37Z"/><path class="cls-1" d="M847.9,282.67c-2.24-4.19-.5-8.69-1-13a46.5,46.5,0,0,1,0-5.28l-.1.09c2.35,1,1.09,3,1.14,4.49.13,4.6-.07,9.2-.15,13.81Z"/><path class="cls-1" d="M1024.33,269.26c2.51,1.52.67,3.92,1.16,5.86s-.84,4.07,1,5.7l-.11-.09v4.69c-1.05-2.51-2.19-4.9-2.06-7.64s.06-5.74.08-8.61Z"/><path class="cls-1" d="M1024.43,269.17c-2.1-6.12-.73-12.37-.78-18.58l-.1.09c2.07,6.12.71,12.37.78,18.58Z"/><path class="cls-1" d="M920.34,282.54c-2.43-5.72-.69-11.64-.87-17.48a.81.81,0,0,1-.1.09c2.15,5.73.56,11.65.88,17.47Z"/><path class="cls-1" d="M875.94,269c2.19,5.81.68,11.78.78,17.68l.1-.14c-2.13-5.79-.65-11.75-.78-17.63Z"/><path class="cls-1" d="M449.67,281.81c.14-5.87-1.43-11.81.81-17.59l-.11-.09c-.17,5.86,1.38,11.8-.81,17.58Z"/><path class="cls-1" d="M537.18,270.22c1.52,4.14,2.85,8.28.1,12.55V270.13Z"/><path class="cls-1" d="M440,263.43c-.72-4,.2-7.81,1.87-11.65v8.57l.1-.09c-1.6.41-.3,2.77-2.06,3.08Z"/><path class="cls-1" d="M495.85,283.62v8.1c-3.05-4.63-1.78-8.49-1.83-12.15l-.1.09c2.05.67.08,3.34,2,4.06Z"/><path class="cls-1" d="M858.65,292.13c-2.34-2.53-.89-5.59-1.09-8.39a87.94,87.94,0,0,1,.17-9l-.1.09c2.16,5.71.53,11.61.92,17.42Z"/><path class="cls-1" d="M601,264.21v-7.62a21.13,21.13,0,0,1,1.83,12.66l.1-.09c-2.26-1.05.17-4-2-5.05Z"/><path class="cls-1" d="M695.49,290.38c-2.69-2.51.55-6.32-1.94-8.88l.09.1a3.52,3.52,0,0,1,1.75-4.17v13Z"/><path class="cls-1" d="M844,253.61c-.29,5.5,1.3,11.11-.91,16.51l.11.09c.19-5.51-1.43-11.11.9-16.51Z"/><path class="cls-1" d="M868.14,269c-.3,5.49,1.35,11.1-1,16.47l.1.1c.31-5.49-1.34-11.1,1-16.47Z"/><path class="cls-1" d="M825.78,283.5c2.1,5.46.71,11.08.78,16.64l.1-.09c-2-5.46-.7-11.08-.78-16.64Z"/><path class="cls-1" d="M870.06,270.13l2.13,1.06-.11-.09c.35,3-.13,5.91-1.93,9.72V270Z"/><path class="cls-1" d="M870.15,270l-2-1.05.09.1a14.48,14.48,0,0,1,1.83-9.43v10.47Z"/><path class="cls-1" d="M1124.76,273.09c2.39-2.16-.68-5.73,2-7.82l-.09-.09a35.81,35.81,0,0,1-1.38,14.16c-1-2.44-.55-4.41-.46-6.36Z"/><path class="cls-1" d="M901.81,258.32c-.1,5.55,1.34,11.17-.81,16.62l.11.09c.12-5.54-1.29-11.16.81-16.61Z"/><path class="cls-1" d="M519.91,267.1c.11-2.82-.51-5.69.58-9,4,1.51,1.89,4.76,2.38,7l.11-.09c-2.48-.57-.37-2.84-1.57-4-1.39,1.72,1,4.55-1.6,5.89Z"/><path class="cls-1" d="M884.62,251.72l-2.1-1.11.11.09a15.51,15.51,0,0,1,1.9-9.49v10.6Z"/><path class="cls-1" d="M1146.82,279.89c1.63-.34.26-2.85,2.16-3l-.09-.08a20.67,20.67,0,0,1-2,11.89V279.8Z"/><path class="cls-1" d="M1071.88,268.93c-1.11.45-1-.8-1.58-1.16-1.38,2.57.94,5.78-1.45,8.13l.11.1V264.83c3.35-.1,2.9,2.16,2.82,4.19Z"/><path class="cls-1" d="M844.13,253.7v-8.34c3,2.47,1.64,5.53,1.9,8.24l.11-.1-2.11.11Z"/><path class="cls-1" d="M1021.43,255.43c-.12,5.22,1.43,10.53-.81,15.65l.11.1c.15-5.22-1.38-10.53.81-15.65Z"/><path class="cls-1" d="M956,283.58c-2.4-5.09-.7-10.4-.87-15.62l-.1.09c2.15,5.11.56,10.43.88,15.64Z"/><path class="cls-1" d="M508.34,276.88c-2.22-5-.53-10.32-.93-15.47l-.1.08c2.51,5,.69,10.32.93,15.48Z"/><path class="cls-1" d="M1096.88,273.88a4.5,4.5,0,0,0-3,1.33V270.1l-.1.09,3-1.48V274Z"/><path class="cls-1" d="M496.76,268c-.35,5.2,1.34,10.52-.92,15.61l.11.1c.22-5.21-1.5-10.52.9-15.6Z"/><path class="cls-1" d="M588.41,258.56c-2.2-5-.53-10.3-1-15.44l-.1.1c2.6,5,.71,10.28,1,15.43Z"/><path class="cls-1" d="M917.25,252.53c-.22,5.15,1.63,10.43-1,15.44l.11.09c.45-5.13-1.23-10.4,1-15.43Z"/><path class="cls-1" d="M889.55,284.7c.12-5.22-1.42-10.53.81-15.65l-.1-.1c-.15,5.22,1.38,10.53-.81,15.65Z"/><path class="cls-1" d="M1027.33,271c-.17-2.77-.09-5.48,2-7.68l-.1-.09c0,3.29,0,6.58,0,10.49l-2-2.82Z"/><path class="cls-1" d="M1033,267.35c2.66,2.06.37,5,1.79,8.16.47.49,3.27.52,2.25,3.18l.1-.09c-1.37-.16-1.94-2.4-4-1.12V267.26Z"/><path class="cls-1" d="M1077.53,268.17v3.75c-1.4-1.47-1.27-3.45-3-3.94l.1.1v-6.26c2.42,1.85,1.26,4.77,3,6.44Z"/><path class="cls-1" d="M1249.27,269.17v12.88c-1.93-.07-2.07-1.1-2-2.28l-.11.09c2-1.79.51-4.14,1-6.16.39-1.48-1.13-3.47,1.17-4.43Z"/><path class="cls-1" d="M920.25,282.62l2,1.06-.09-.1c-.19,2.48,1.23,5.28-1.83,7.79v-8.83Z"/><path class="cls-1" d="M447.57,285.57c-2.19-5.13-.7-10.44-.79-15.68l-.09.09c2.13,5.13.66,10.44.78,15.68Z"/><path class="cls-1" d="M1032.21,251.67c2.19,5.13.7,10.44.79,15.68l.1-.09c-2.14-5.13-.67-10.44-.79-15.68Z"/><path class="cls-1" d="M572.18,264.44V251.35l1.3.05c-1,4.3.7,8.69-1.41,12.94Z"/><path class="cls-1" d="M429.4,264.11c-2.62,2.05.69,5.77-2.17,7.75l.1.09a38.54,38.54,0,0,1,1.46-13.87c1,2.21.44,4.2.51,6.13Z"/><path class="cls-1" d="M829.74,243.22A31.78,31.78,0,0,1,831,229.29c1.16,1.64.44,3.38.57,5l.11-.1c-2.66,2.52.67,6.4-2,8.91Z"/><path class="cls-1" d="M496.85,268.12V260c1.47,3,.52,5.82,2.89,7.14l-.09-.11a2,2,0,0,1-1.32,2.65c-.46-.49-1-1.09-1.57-1.7Z"/><path class="cls-1" d="M1249.37,269.27c.16-4.87-1.45-9.84.89-14.57l-.09-.09c-.31,4.85,1.23,9.82-.91,14.56Z"/><path class="cls-1" d="M860.51,295.27c.31-4.88-1.26-9.88.92-14.65l-.11-.09c-.21,4.88,1.42,9.88-.9,14.63Z"/><path class="cls-1" d="M867.17,285.46v13.36l-.85,0V285.46l-.09.09h1Z"/><path class="cls-1" d="M587.44,243.12c-2.1-4.8-.71-9.79-.78-14.71l-.1.09c2.05,4.8.69,9.79.78,14.71Z"/><path class="cls-1" d="M487.17,274.94V284c-2.24-2.21-2.12-4.67-2-7.13l-.1.09c1.14-.2.71-2.17,2.21-2Z"/><path class="cls-1" d="M537.28,270.13c-2.71-2.86.58-6.92-2-9.8l.1.08c-.27-1.25.27-2,1.78-2.79,0,4.52,0,8.56,0,12.6Z"/><path class="cls-1" d="M1017.74,269c2.11,4.81.71,9.8.79,14.71l.09-.09c-2-4.8-.68-9.79-.78-14.71Z"/><path class="cls-1" d="M575.87,270.13c-2.23-4.44-.49-9-.58-13.51a50.81,50.81,0,0,1,.48,13.6Z"/><path class="cls-1" d="M947.26,268.13c-.35,4.52,1.35,9.17-.92,13.56l.11.1c.24-4.53-1.53-9.19.91-13.58Z"/><path class="cls-1" d="M997.31,263.14c-.13,4.59,1.43,9.27-.81,13.73l.11.09c.17-4.57-1.39-9.26.81-13.72Z"/><path class="cls-1" d="M1197.15,259.49c.34,3.59-2.31,6.22-3,9.46l.11.09v-7.9l3-1.55Z"/><path class="cls-1" d="M1308.42,280.09c-.73,1.42.34,3.19-.91,4.61-1-4.05-2.08-8-1.15-12.13l-.12.15c2.27,2-.5,5.58,2.26,7.45Z"/><path class="cls-1" d="M562.42,247.81c2.19,4.37.53,9,1,13.51l.1-.1c-2.58-4.33-.7-9-1-13.5Z"/><path class="cls-1" d="M1171.08,275.87a21.6,21.6,0,0,1-1.35,10.89c-1.19-1.7-.45-3.43-.6-5.05l-.1.09c2.45-1.31-.53-4.62,2.15-5.85Z"/><path class="cls-1" d="M487.27,275v-9.5c3.3,3.49,1.27,6.44-.11,9.41Z"/><path class="cls-1" d="M408.08,275.92v5.69a24.23,24.23,0,0,1-2-12.46l-.1.09c2.93,1.55-.42,5.12,2.18,6.77Z"/><path class="cls-1" d="M429.3,264.21c2.21,4.44.58,9.13.9,13.69l.09-.1c-2.4-4.43-.68-9.11-.89-13.68Z"/><path class="cls-1" d="M507.41,261.41c-1.77-.3-.44-2.67-2.05-3.07l.1.1c.27-1.83-1.13-4.16,1.86-5.47v8.52Z"/><path class="cls-1" d="M1104.42,267.3c2.48.84,0,3.8,2.08,4.83l-.09-.1v6.45a20.86,20.86,0,0,1-1.88-11.27Z"/><path class="cls-1" d="M592.44,270.23c.24-4.51-1.61-9.17.94-13.52l-.1-.1c-.41,4.5,1.23,9.14-.95,13.52Z"/><path class="cls-1" d="M430.2,277.9c1.13-.15.53-2.21,2.08-1.9l-.1-.1c-.17,2.74,1,5.74-1.62,8.16-.71-2.18-.4-4.23-.27-6.27Z"/><path class="cls-1" d="M458.08,277.94c2.63-2-.71-5.76,2.18-7.73l-.11-.09c.2,4,.4,8-1.44,11.78-1-1.27-.44-2.71-.53-4.06Z"/><path class="cls-1" d="M1065.9,273v7.33c-2.31-2.68-2.06-5.47-1.91-8.24l-.1.09,2.1.93Z"/><path class="cls-1" d="M860.42,295.16a7,7,0,0,1-1.78,6.26c0-3.29,0-6.29,0-9.29l-.1.09c1.77.3.43,2.6,2,3Z"/><path class="cls-1" d="M509.3,296.17h1.05l-.09-.1v11.43h-.87V296.07Z"/><path class="cls-1" d="M484.29,264.21c2.08,4.15.75,8.5.78,12.78l.1-.09c-2-4.15-.73-8.5-.78-12.78Z"/><path class="cls-1" d="M982.85,268.93v11.13l-1.49-.06c1.48-3.61-.68-7.38,1.59-11Z"/><path class="cls-1" d="M363.81,258.33c-2.68,2,.75,5.77-2.21,7.71l.11.09v-10c1.93.07,2.06,1.1,2,2.28Z"/><path class="cls-1" d="M441.84,260.35c2.08,4.15.75,8.51.78,12.78l.1-.09c-2-4.15-.73-8.5-.78-12.78Z"/><path class="cls-1" d="M418.62,270.9c.37,3.75.26,7.45-1.38,11-1-1.32-.48-2.76-.5-4.13l-.1.09c2.48-1.75-.65-5.19,2.07-6.87Z"/><path class="cls-1" d="M387.82,267.05c-1.13.16-.53,2.2-2.08,1.91l.11.09c-.19-2.78-.4-5.56,1.65-8,.66,2.08.36,4.1.24,6.11Z"/><path class="cls-1" d="M1053.44,277.71c2.24,3.8.39,7.73.58,11.59a37.25,37.25,0,0,1-.48-11.68Z"/><path class="cls-1" d="M773.68,275.78c2.09,4.15.75,8.51.79,12.79l.1-.09c-2-4.15-.73-8.51-.78-12.79Z"/><path class="cls-1" d="M356.1,266c-2.25,1.55,0,4.33-1.7,6.14-1.27-3.58,0-6.8.91-10.22,1.25,1.35.55,2.83.69,4.17Z"/><path class="cls-1" d="M1224.12,276.75v-6.82c2.82,2.82,2.8,3.31-.11,6.73Z"/><path class="cls-1" d="M519.81,267c-.2,3.87,1.52,7.9-1,11.58l.11.1c.44-3.85-1.19-7.87,1-11.58Z"/><path class="cls-1" d="M1182.68,272v6.86c-2.84-4.07-2.83-4.24.11-6.76Z"/><path class="cls-1" d="M1132.35,281.82c1.64-.29.2-2.92,2.22-2.92l-.11-.09c.09,4.48.09,4.48-1.57,8-.87-1.65-.33-3.38-.44-5Z"/><path class="cls-1" d="M543.08,268.08c.47-3.84-1.31-7.88,1-11.57l-.1-.1c-.28,3.86,1.54,7.9-1,11.58Z"/><path class="cls-1" d="M1050.5,273c-2-.83-.36-2.9-1.39-4.08-1.14,0-1.41,1-1.67,1.9-1.31-.82-.7-1.81-.81-2.63l-.1.09c1-.58,2-1.61,3.57-.88,1,1.74.44,3.73.3,5.69Z"/><path class="cls-1" d="M1084.4,278.6c-2.64-3.58-.55-7.61-1.09-11.39l-.1.08c2.59,3.59.52,7.62,1.09,11.4Z"/><path class="cls-1" d="M361.6,266c-.17,3.93,1.48,8-.87,11.76l.09.11c.34-3.92-1.33-8,.89-11.77Z"/><path class="cls-1" d="M522.87,265.17c2.17,3.7.51,7.72,1,11.56l.1-.09c-2.5-3.67-.77-7.69-1-11.56Z"/><path class="cls-1" d="M358.93,275.76c-2.08-2.9-3.85-5.9-2.84-9.71l-.1.09c1.05,3.2,3.56,6,2.84,9.71Z"/><path class="cls-1" d="M1040.9,270.13c-.52,3.79,1.35,7.81-1.07,11.42l.1.09c.5-3.79-1.58-7.83,1.07-11.41Z"/><path class="cls-1" d="M1131.42,270.21c2.47,3.69.75,7.72.94,11.61l.1-.1c-2.1-3.72-.55-7.74-.94-11.6Z"/><path class="cls-1" d="M955.94,283.69c1.13-.15.52-2.24,2.1-1.89l-.1-.09v7c-2.47-1.27-2.1-3.24-1.91-5.14Z"/><path class="cls-1" d="M503.69,279.88c.2-3.87-1.52-7.9,1-11.58l-.1-.09c-.44,3.84,1.19,7.86-1,11.57Z"/><path class="cls-1" d="M831.56,234.31c2.17,3.81.69,7.86.79,11.81l.1-.09c-2.13-3.81-.67-7.86-.78-11.82Z"/><path class="cls-1" d="M594.09,244.82c-.14,3.94,1.4,8-.82,11.79l.11.1c.16-3.94-1.37-8,.81-11.8Z"/><path class="cls-1" d="M1010,269.13c.51,3.12-.33,6-1.33,9.09-1.13-1.45-.55-2.89-.63-4.23l-.11.09c2.2-1-.32-4,2.17-4.86Z"/><path class="cls-1" d="M392.64,268.12l-2.1-1.12.11.1c-.09-1.84-.34-3.72,1.9-5.36v6.47Z"/><path class="cls-1" d="M1185.42,270.23c2.22,2.45,1.17,5.24,1.7,7.87l-1.6.15v-8.11Z"/><path class="cls-1" d="M950.16,276.88c-2.1-3.45-.64-7.19-.9-10.79l-.09.1c2.27,3.43.74,7.17.89,10.78Z"/><path class="cls-1" d="M1329.83,265.79c2.52.87.8,4.33,3.4,4.85-.83,1.81-1.89-.52-2.53,1.76-.37-2.92-.61-4.77-.85-6.62Z"/><path class="cls-1" d="M1138.31,268.18c-.68,1.76,1.84,5.61-3,4.64l.1.09v-3.42c1.91,1.5,1.61-1.66,3-1.21Z"/><path class="cls-1" d="M553.58,253.82c2.52,3.23.62,6.94,1.13,10.39l.1-.09c-2.52-3.23-.62-6.94-1.13-10.39Z"/><path class="cls-1" d="M1306.36,272.57c-1.57.66-.57,2.66-1.85,3.57-.9-2.59-.21-4.86,1.13-7.28.95,1.29.39,2.66.59,3.87Z"/><path class="cls-1" d="M1108.42,261.32c2.14,3.14.72,6.44.1,9.7v-9.79Z"/><path class="cls-1" d="M1219.24,272.1c2,2,.61,4.29,1.63,6.37-2-2-1.54-4.26-1.54-6.46Z"/><path class="cls-1" d="M461,259.29c-.08,3.62,1.31,7.35-.81,10.82l.11.1c.11-3.62-1.27-7.35.81-10.83Z"/><path class="cls-1" d="M846,253.6c2.07,3.48.73,7.22.79,10.85l.1-.09c-2-3.49-.71-7.22-.79-10.85Z"/><path class="cls-1" d="M1194.12,269v8.67c-2.73-3.33-1-5.94.11-8.57Z"/><path class="cls-1" d="M434,255.43c-.22,3.54,1.55,7.27-1,10.61l.1.09c.49-3.52-1.28-7.24,1-10.6Z"/><path class="cls-1" d="M1014.77,254.63v6.13c-1.8-.59-.27-2.9-2-3.38l.11.1v-3.06c.92-.88,1.34.23,2,.32Z"/><path class="cls-1" d="M1166.3,265.17c2.09,3.44.68,7.16.85,10.75l.08-.1c-2.14-3.43-.71-7.14-.83-10.74Z"/><path class="cls-1" d="M1104.53,267.21c-2.07-.65-.1-3.36-2.07-4.06l.11.09c.09-1.37-.5-2.83.51-4.11,1.72,2.54,1.8,5.31,1.35,8.17Z"/><path class="cls-1" d="M985.85,280.74c-2.07-3.48-.73-7.22-.78-10.85l-.1.09c2,3.49.7,7.22.78,10.85Z"/><path class="cls-1" d="M556.74,283.41c-2.6-2.86-.56-6.29-1.16-9.4l-.09.09c2.58,2.87.63,6.29,1.14,9.41Z"/><path class="cls-1" d="M348.93,271.14c-.91-1.71-2.53-3.3-1.23-5.68C350.26,266.92,349,269.19,348.93,271.14Z"/><path class="cls-1" d="M553.68,253.73c-2.14-3.14-.7-6.57-.78-9.89l-.1.09c2.09,3.15.67,6.58.78,9.89Z"/><path class="cls-1" d="M1158.65,270.91c-1.21-.05-1.8,1-2.63,1.63-1.54-2.74.8-3.53,2.53-5.16V271Z"/><path class="cls-1" d="M872.19,271.19c.13-3.23-1.45-6.64,1-9.64l-.1-.1c-.4,3.21,1.15,6.61-1,9.65Z"/><path class="cls-1" d="M513.22,258.42c2.13,3,.57,6.44,1,9.64l.11-.09c-2.43-3-.83-6.41-1-9.64Z"/><path class="cls-1" d="M1127.62,265.28l2-1-.08-.11a7.38,7.38,0,0,1-1.57,6.23c-.74-1.72-.36-3.46-.29-5.17Z"/><path class="cls-1" d="M1008,274c-2.15-3.15-.7-6.58-.79-9.89l-.1.09c2.1,3.15.68,6.58.79,9.89Z"/><path class="cls-1" d="M1060.16,269.14v8.55c-.8-2.86-2.19-5.76.11-8.46Z"/><path class="cls-1" d="M504.65,268.3c.12-3.3-1.38-6.73.82-9.86l-.11-.1c-.15,3.3,1.34,6.73-.82,9.86Z"/><path class="cls-1" d="M1060.27,269.23a13.52,13.52,0,0,1,.12-5.59c2.7-1.06,2.83.57,2.71,2.49l.1-.1-1.67-.46c-1.08.86.68,3-1.37,3.57Z"/><path class="cls-1" d="M554.71,264.21c2.14,3.14.69,6.57.78,9.89l.1-.09c-2.1-3.15-.68-6.58-.78-9.89Z"/><path class="cls-1" d="M634.6,217.81c-.12,3.3,1.38,6.73-.81,9.86l.11.09c.15-3.29-1.35-6.72.81-9.85Z"/><path class="cls-1" d="M1326.74,268.58c-.45,2.14-.26,4.46-1.71,6.36-1.16-.89-.13-2.43-1-3.43l0,0c1.81-.1.6-3.12,2.78-2.87Z"/><path class="cls-1" d="M1027.22,270.86c-.12,3.3,1.38,6.73-.81,9.86l.1.1c.15-3.29-1.34-6.73.82-9.86Z"/><path class="cls-1" d="M365.69,275.75c-2.46-2.91-.56-6.33-1.11-9.46l-.1.09c2.55,2.9.69,6.31,1.12,9.45Z"/><path class="cls-1" d="M1083.31,267.21c-2.09-.62-.09-3.27-2-4l.09.08c-.47-1.44.73-2.15,1.8-3.13v7.11Z"/><path class="cls-1" d="M1131.52,270.12c-2.43-1.42.28-4.5-1.94-6l.08.11c-.05-.76-.36-1.56.44-2.34,2.37,2.5,1.44,5.47,1.32,8.31Z"/><path class="cls-1" d="M1056.44,286c1.21-.07,1.21,2.16,2.87.53-.09,1.9-.14,3.14-.26,5.73C1058.16,289.27,1055.73,288.64,1056.44,286Z"/><path class="cls-1" d="M433,266c-.12,3.3,1.38,6.73-.81,9.86l.1.1c.15-3.3-1.34-6.73.82-9.86Z"/><path class="cls-1" d="M1164.2,261.22v8.85c-.7-2.95-1.89-5.92.11-8.75Z"/><path class="cls-1" d="M524.83,286.42c-2.36-3.07-.74-6.5-.87-9.78l-.1.09c2.14,3.1.58,6.52.88,9.79Z"/><path class="cls-1" d="M1115.15,258.46c-.27-2.79-.27-5.53,1.44-8,1,.93.42,2.09.53,3.13l.1-.09c-2.21,1,.31,4-2.18,4.88Z"/><path class="cls-1" d="M499.74,267.17c-.46-2,.57-3.56,1.81-5.87v6.91l.09-.09-2-1.06Z"/><path class="cls-1" d="M1145.89,270.21c2.4,3,.82,6.43.94,9.67l.1-.09c-2.07-3.05-.59-6.45-.94-9.67Z"/><path class="cls-1" d="M390.54,267c-.12,3.3,1.38,6.74-.81,9.87l.11.09c.15-3.29-1.35-6.72.81-9.86Z"/><path class="cls-1" d="M1037.82,283.73c1.14-.26.76-2,2.11-2.09l-.1-.08v6.19c-1.92-.91-2-2.45-1.9-4.11Z"/><path class="cls-1" d="M916.28,268c-.13,3.24,1.46,6.65-.95,9.66l.1.09c.38-3.21-1.16-6.61,1-9.65Z"/><path class="cls-1" d="M1119,268.2c-2.09-2.7-.6-5.8-1-8.69l-.1.09c2.45,2.66.76,5.78,1,8.69Z"/><path class="cls-1" d="M926.9,256.39c-.07,3,1.25,6.1-.82,8.9l.11.09c.09-3-1.22-6.08.81-8.89Z"/><path class="cls-1" d="M323.1,273c1.58-.56.39-2.35,1.43-3.2,1.85,2.32-.4,4.14-.48,6.32-1.58-.93-.81-2.15-.86-3.21Z"/><path class="cls-1" d="M1102.46,263.15c-.06,3,1.26,6.09-.81,8.89l.11.1c.09-3-1.22-6.09.81-8.89Z"/><path class="cls-1" d="M600.84,264.11a20,20,0,0,1-.31,7.9c-.39-2.62-1.66-5.3.42-7.8Z"/><path class="cls-1" d="M367.54,277.83v5.08c-1.56-2.88-2.49-4.84-1.85-7.16l-.09.08c.68.7,1.36,1.4,2,2.09Z"/><path class="cls-1" d="M707.06,327c-2-2.81-.75-5.92-.78-8.92l-.1.09c2,2.82.73,5.93.78,8.92Z"/><path class="cls-1" d="M1112.27,274.88c.42-2.83-1.39-5.95,1.07-8.53l-.11-.09c-.45,2.83,1.29,5.94-1.06,8.54Z"/><path class="cls-1" d="M421.53,269.1c.45,1.4-.79,2.23-1.12,3.39-1.25.18-.8-1.53-1.79-1.59l.09.11v-3.35c1.38-.16.94,3,2.92,1.53Z"/><path class="cls-1" d="M373.32,272c0,1.39.39,2.8-.43,4.37-.86-1.93-2.07-3.56-1.4-5.71,1.29-.37.95,1.43,1.94,1.44Z"/><path class="cls-1" d="M958,281.8c.07-3-1.25-6.09.82-8.89l-.11-.1c-.09,3,1.22,6.09-.82,8.9Z"/><path class="cls-1" d="M1183.6,264.21l1.29-1.92c1.3,2.86.72,5.41.53,7.94l.1-.09c-2.4-1.43.36-4.59-2-6Z"/><path class="cls-1" d="M944.39,274a5.73,5.73,0,0,1-.85-6.25c1.2,2.07,1,4.2.75,6.33Z"/><path class="cls-1" d="M879.79,272.06c-.51,2.8,1.36,5.92-1.11,8.46l.1.1c.51-2.81-1.38-5.93,1.12-8.47Z"/><path class="cls-1" d="M1113.34,266.35c-.48-2.88-.27-5.6,1.81-7.89l-.1-.09a11.12,11.12,0,0,1-1.82,7.88Z"/><path class="cls-1" d="M1282.91,268c-.06-1.7-.07-3.36,2.52-2.63,1,1.39.36,3,.56,4.55l.11-.11c-2.11.21-.84-1.6-1.41-2.35l-1.91.42Z"/><path class="cls-1" d="M479.33,270.91c.24,2.24.73,4.54-1.42,6.31-.83-1.06-.38-2.18-.44-3.24l-.1.1c1.61-.41.3-2.77,2.07-3.08Z"/><path class="cls-1" d="M1239.56,267.11c.06-1.63-.7-3.54,1.48-4.49.94,1.06.45,2.33.5,3.52l.11-.09-2.2,1Z"/><path class="cls-1" d="M452.42,271c2.1.59.1,3.19,1.93,3.91l-.08-.09-1.08,2.45-.67,0v-6.33Z"/><path class="cls-1" d="M477.47,274c-2.15-2.36-.57-5.17-.93-7.75l-.1.09c2.38,2.33.73,5.16.93,7.76Z"/><path class="cls-1" d="M1089.12,284.59v2.26c-1.06-1.56-3.74-2.11-2.68-4.79l2.79,2.62Z"/><path class="cls-1" d="M556.63,283.51c2.1,2.46.72,5.28.79,7.95l.1-.09c-2-2.47-.7-5.28-.79-7.95Z"/><path class="cls-1" d="M1254.18,269c-2.52-2.18-.6-5-1.12-7.5l-.1.09c2.51,2.18.61,5,1.12,7.51Z"/><path class="cls-1" d="M1041,270.23v-7c.81,2.35,1.82,4.7-.11,6.9Z"/><path class="cls-1" d="M1272.2,271.23c1.13-.22.75-2.16,2.24-2l-.1-.1v5.33a3.59,3.59,0,0,1-2-3.34Z"/><path class="cls-1" d="M1074.5,268v6.46c-.8.51-1.44.51-1.82-.46l-.11.09c2.38-1.42-.42-4.6,2-6Z"/><path class="cls-1" d="M424.52,274.79c-2.42-2.3-.61-5.16-1-7.73l-.09.1c2.36,2.31.62,5.16,1,7.72Z"/><path class="cls-1" d="M1213.59,272l-2.91.65v-2.71l-.09.11,2.91-.63v2.68Z"/><path class="cls-1" d="M882.52,250.61c-.16,2.59,1.42,5.4-1,7.72l.1.09c.41-2.56-1.14-5.37,1-7.71Z"/><path class="cls-1" d="M563.39,261.32c2.1,2.47.71,5.28.78,7.95l.1-.09c-2-2.47-.69-5.28-.78-7.95Z"/><path class="cls-1" d="M533.58,267.32c.13-2.43-1.66-5.37,1.83-6.91l-.1-.08c-.85,2.23,0,4.92-1.84,6.89Z"/><path class="cls-1" d="M1274.44,269.25c-.08-1.7-.15-3.4-.25-5.65,2.82,2.26,2.12,3.92.14,5.55Z"/><path class="cls-1" d="M1295.09,271.7c-1.22-2.06-.29-3.44.82-4.93C1297.5,268.82,1295.9,270.07,1295.09,271.7Z"/><path class="cls-1" d="M1077.63,268.26c-.05-1.1-.11-2.21-.17-3.47,1.38-.51,2.67-1,4-1.48l-.09-.08c.06,2.66-3.5,2.55-3.79,4.94Z"/><path class="cls-1" d="M873.15,261.55c.1-2.66-1.33-5.48.82-7.93l-.11-.1c-.13,2.66,1.29,5.47-.82,7.93Z"/><path class="cls-1" d="M412,263.16l-1.71.82c-.73-1.8-.73-3.25,1.1-4.31.92,1.16.47,2.4.51,3.58Z"/><path class="cls-1" d="M1139.23,262.28v-4.51l2.54.92-2.64,3.5Z"/><path class="cls-1" d="M1219.33,272c-1.89-1.52-2.77-3.16-.09-5.48v5.57Z"/><path class="cls-1" d="M878.68,280.52V287c-.8.54-1.43.51-1.86-.41l-.09.14c2.37-1.45-.4-4.64,2-6.08Z"/><path class="cls-1" d="M1253.06,261.45c-2.14-2.42-.6-5.26-.9-7.88l-.09.1c2.32,2.39.72,5.23.89,7.87Z"/><path class="cls-1" d="M1286,269.94c1.6,1.63,2.7,3.3-.2,5.68.12-2.26.21-4,.31-5.78Z"/><path class="cls-1" d="M363.7,258.42c2.1,2.47.72,5.28.79,8a.43.43,0,0,1,.1-.09c-2-2.47-.7-5.28-.79-8Z"/><path class="cls-1" d="M1244.44,271c-.24-1.51.43-2.55,2-3.49v5.33l.1-.09c-1.58.41-1-1.75-2.15-1.83Z"/><path class="cls-1" d="M1091.05,272.06c-.52,2.48,1.42,5.32-1.1,7.51l.11.1c.47-2.49-1.4-5.33,1.1-7.52Z"/><path class="cls-1" d="M1271.57,266c-2.48-1-2.48-1-.11-4.62v4.72Z"/><path class="cls-1" d="M458.18,277.84c-1.92-2.19-.92-4.55-.6-7.95a17.72,17.72,0,0,1,.5,8Z"/><path class="cls-1" d="M416.74,277.79c-1.65-.29-.45-3.39-3-2.52.53-1.67,1.71-1.58,2.72-1.92.68,1.53.37,3,.21,4.53Z"/><path class="cls-1" d="M381.17,268c-5.08-.83-.53-2.7-.11-4.08v4.18Z"/><path class="cls-1" d="M408.18,276v-7c.82,2.35,1.82,4.7-.1,6.9Z"/><path class="cls-1" d="M881.56,258.33c-.18,2.59,1.43,5.41-.94,7.74l.1.09c.38-2.57-1.22-5.38.95-7.74Z"/><path class="cls-1" d="M424.43,274.88c1.34.06.94,1.84,2.07,2.09l-.1-.1c-.12,1,.56,2.2-1.14,2.86-1.59-1.41-.7-3.27-.74-4.93Z"/><path class="cls-1" d="M285.61,270.83c1.94-.95,3.9-1.18,6.84,0Z"/><path class="cls-1" d="M1224,276.66v7c-.81-2.35-1.81-4.7.11-6.9Z"/><path class="cls-1" d="M421.63,269.19c-.35-1.91-.34-3.73,1.37-5.33.86,1,.53,2.19.42,3.31l.09-.11c-1.12.24-.6,2.05-2,2Z"/><path class="cls-1" d="M525.78,286.52c.38-2.54-1.43-5.38,1-7.63l-.11-.1c-.45,2.53,1.34,5.37-1,7.64Z"/><path class="cls-1" d="M518.84,278.58c-.17,2.63,1.45,5.46-.88,7.85l.1.09c.28-2.61-1.25-5.43.89-7.84Z"/><path class="cls-1" d="M531.5,276.88c-1.93-2.19-.92-4.55-.6-8a17.91,17.91,0,0,1,.5,8.05Z"/><path class="cls-1" d="M517.11,286.42c-2.39-2.26-.56-5.1-1-7.62l-.11.09c2.48,2.25.66,5.09,1.06,7.63Z"/><path class="cls-1" d="M1044.87,256.39l-1.69,1.43c-1.46-1.72.19-3,.8-4.75,1.33,1.1.63,2.34.79,3.41Z"/><path class="cls-1" d="M1183.5,264.11c-.11,2.66,1.33,5.48-.82,7.93l.11.1c.13-2.66-1.3-5.47.82-7.93Z"/><path class="cls-1" d="M1327.77,260.93c-1.07,2.44.4,5.23-1,7.63l.08.1c0-2.61-1.94-5.47,1-7.71Z"/><path class="cls-1" d="M384.92,275v3.87L382,274l-.1.09c1.36-.68,2.18.45,3.18,1Z"/><path class="cls-1" d="M1303,283.29c-1.37-1.56-2.21-2.85-1.37-4.88C1302.52,279.86,1303.51,281,1303,283.29Z"/><path class="cls-1" d="M1345.68,261.45h3.83C1348.14,262.26,1347.31,263.5,1345.68,261.45Z"/><path class="cls-1" d="M1247.28,279.77c-2-2.13-.82-4.62-.79-7a.43.43,0,0,0-.1.09c1.91,2.14.79,4.62.78,7Z"/><path class="cls-1" d="M999.41,272.9c2.07,1.86.74,4,.72,7.11a13.41,13.41,0,0,1-.62-7.2Z"/><path class="cls-1" d="M1250.26,254.7a4.36,4.36,0,0,1,1.41-4.41c.81,1.11.51,2.26.4,3.38l.09-.1c-.67.34-1.33.69-2,1Z"/><path class="cls-1" d="M334.76,264.27c1.7,1.82,2.42,3.26,1.52,5.67C335.58,268,334.54,266.79,334.76,264.27Z"/><path class="cls-1" d="M1010.1,269.22a6.12,6.12,0,0,1,2-5.75l-.11-.1c.18,2.2.14,4.33-2,5.76Z"/><path class="cls-1" d="M411.93,263.25c2.07,1.87.75,3.95.72,7.11a13.41,13.41,0,0,1-.62-7.2Z"/><path class="cls-1" d="M264.24,271.66l-5.12,1C260.71,270.24,262.68,271.21,264.24,271.66Z"/><path class="cls-1" d="M940.67,278.9a13.63,13.63,0,0,1,.6-7.21c.05,3.17,1.36,5.25-.7,7.12Z"/><path class="cls-1" d="M1112.17,274.8v4.67c-1.84-1.87-3-3.31.1-4.59Z"/><path class="cls-1" d="M1327.81,261a6.48,6.48,0,0,1-.1-4.57c1.37-.3,1.38,1,2,1.57,0,.06,0,0,0,0-1.25.59-1.49,1.86-2,3Z"/><path class="cls-1" d="M358.83,275.85c1.37,0,.87,1.82,2,2.06l-.09-.11c.22,1.23,0,2.17-1.54,2.45-.79-1.47-.37-3-.27-4.49Z"/><path class="cls-1" d="M1329.85,265.78a14.18,14.18,0,0,1-.11-7.83h0a14.5,14.5,0,0,1,.1,7.84Z"/><path class="cls-1" d="M1241.54,266.14c2,2.09.73,4.61.91,6.94l.08-.11c-2.15-2.06-.83-4.58-.89-6.92Z"/><path class="cls-1" d="M527.68,272c-.28,2.26,1.08,4.75-1,6.75l.1.09c.17-2.27-1.38-4.79,1-6.74Z"/><path class="cls-1" d="M1281.11,279.79v3.48a4.34,4.34,0,0,1-2.06-4.41l-.11.1c1-.37,1.51.67,2.29.94Z"/><path class="cls-1" d="M1260.94,263.16l-1.76,2.61c-.89-2-.19-3.48,1.65-5.38v2.86Z"/><path class="cls-1" d="M1153.75,275.86c0-2-.55-4,.6-5.86,0,1.94,1.67,4.05-.69,5.77Z"/><path class="cls-1" d="M350.36,269.48c1.61.39,3.47.44,2.48,3.09C352.35,271.24,349.31,272.26,350.36,269.48Z"/><path class="cls-1" d="M1045.83,263.15c-2.42-1.95-.83-4.48-1-6.76l-.1.09c2,2,.58,4.51,1,6.76Z"/><path class="cls-1" d="M1242.45,273.08c1.12-.24.6-2.07,2-2l-.1-.09c.63,1.95-.73,3.43-1.26,5.4-1-1.17-.64-2.3-.55-3.38Z"/><path class="cls-1" d="M1167.15,275.92c4,.88,1.44,3.85,1.88,5.87l.1-.09c-2.07-1.49-.27-4.24-1.9-5.88Z"/><path class="cls-1" d="M1213.5,272.1l1.58-.77c1.28,1.87-.5,2.75-.8,4.45-1.22-1.47-.73-2.66-.69-3.79Z"/><path class="cls-1" d="M1208.69,272c-1.42,2.33-3.08.65-4.66.29,1.54-1.1,3.17,0,4.75-.21Z"/><path class="cls-1" d="M368.51,271.08c-.28,2.25,1.08,4.75-1,6.75l.1.09c.17-2.27-1.38-4.79,1-6.75Z"/><path class="cls-1" d="M1004.1,283.44c.39,2,.41,3.9-1.8,5.68.09-2.35.41-4.14,1.9-5.59Z"/><path class="cls-1" d="M1093.91,270.1c-2.07-.64-.08-3.33-2-4l.1.1a1.7,1.7,0,0,1,1.63-1.45c.74,1.81.38,3.65.2,5.48Z"/><path class="cls-1" d="M342.86,263.92c1,2.77-.2,3.68-.93,4.83C340.52,266.87,342.48,266,342.86,263.92Z"/><path class="cls-1" d="M1012.06,263.47c.07-2-1.24-4.24.82-6l-.1-.09c-.1,2,1.19,4.22-.83,6Z"/><path class="cls-1" d="M1260.83,263.25c2.08,1.42.44,3.26.67,4.88-1.09-1.57-.76-3.27-.56-5Z"/><path class="cls-1" d="M949.26,266.09c-1.12.23-.61,2.06-2,2l.1.08a4.16,4.16,0,0,1,1.31-4.35c1.11.52.47,1.51.5,2.33Z"/><path class="cls-1" d="M1174.19,276.37l2.69,1.33C1174.66,278.67,1174.66,278.67,1174.19,276.37Z"/><path class="cls-1" d="M1282.16,274.08c-.47,1.88.91,4.1-1.05,5.7a1.14,1.14,0,0,0,.11.11c.08-1.94-1.41-4.18,1.06-5.69Z"/><path class="cls-1" d="M1097.73,273.89v5.9c-1.42-2.5-.93-4.22-.85-5.91l-.1.1h1Z"/><path class="cls-1" d="M1146,270.12c-2.06-1.53-.53-3.34-.65-5,1.1,1.65.76,3.39.55,5.12Z"/><path class="cls-1" d="M490.88,265.09v5c-.61-1.67-1.81-3.36.11-4.89Z"/><path class="cls-1" d="M1139.13,262.19c-.07,2,1.24,4.24-.83,6l.11.09c.09-2-1.2-4.23.83-6Z"/><path class="cls-1" d="M1279.05,278.86c-1.71-1.51-.76-3.27-.52-4.95,1,1.61.72,3.33.42,5Z"/><path class="cls-1" d="M879.9,272.15c.07-2-1.24-4.24.82-6l-.1-.09c-.1,2,1.2,4.23-.83,6Z"/><path class="cls-1" d="M1149,276.9c-.07-1.19-.55-2.43.34-3.55.92.22,1.58.71,1.46,1.62a2.19,2.19,0,0,1-1.89,1.85Z"/><path class="cls-1" d="M1134.57,278.9c.07-2-1.24-4.24.82-6l-.1-.09c-.09,2,1.2,4.23-.83,6Z"/><path class="cls-1" d="M516.07,278.8c-2.07-1.64-.62-3.86-1-5.79l-.1.09c2.33,1.6.79,3.84,1,5.79Z"/><path class="cls-1" d="M912.62,284.55c-2.24-1.58-.65-3.85-1-5.76l-.1.1c2.4,1.54.67,3.85,1,5.76Z"/><path class="cls-1" d="M1064,272.05c-2-1.77-.76-4-.79-6a.43.43,0,0,0-.1.09c2,1.78.74,4,.79,6Z"/><path class="cls-1" d="M1084.3,278.69c2,1.53.54,3.34.65,5-1.1-1.64-.77-3.38-.55-5.11Z"/><path class="cls-1" d="M1091.16,272.15c.07-2-1.24-4.24.82-6l-.1-.09c-.09,2,1.2,4.23-.83,6Z"/><path class="cls-1" d="M1324.08,271.51q-.48-2.52-1-5c1.85,1.54,1.45,3.3,1,5.07Z"/><path class="cls-1" d="M1210.68,269.94c-1.12.24-.6,2.07-2,2.05l.09.08c-.5-1.7.2-3.07,1.25-4.38,1.17.55.54,1.54.56,2.36Z"/><path class="cls-1" d="M1297.72,274.35l2.27-3.09C1300.91,273.51,1299.8,274.28,1297.72,274.35Z"/><path class="cls-1" d="M1239.45,267c-.13,2,1.35,4.23-.89,5.91l.1.09c.23-2-1.14-4.2.9-5.9Z"/><path class="cls-1" d="M1158.55,271c1.68.6.68,3,2.46,3.51-2.41-.32-2.41-.32-2.36-3.6Z"/><path class="cls-1" d="M979.15,271c2.05,1.54.55,3.34.64,5-1.09-1.65-.75-3.38-.54-5.12Z"/><path class="cls-1" d="M381.06,268.08c2,1.77.76,4,.79,6L382,274c-2-1.78-.74-4-.8-6Z"/><path class="cls-1" d="M1282.28,274.2c-.19-2.1-1.22-4.28.64-6.17l-.13-.12c.14,2.08,1.12,4.26-.64,6.16Z"/><path class="cls-1" d="M323.19,272.91c-4.15-.31-.78-2.06-.09-3.25V273Z"/><path class="cls-1" d="M329,271l-2.63.69c-.36-.86-1-2,.42-2.17.77-.12,2.8-.77,2.12,1.57Z"/><path class="cls-1" d="M385,275c.07-2-1.24-4.23.82-6l-.1-.1c-.1,2,1.19,4.23-.83,6Z"/><path class="cls-1" d="M1118,259.51c-2-1.77-.75-4-.79-6l-.1.09c2,1.78.74,4,.79,6Z"/><path class="cls-1" d="M454.35,274.91c.45-1.4.9-2.8,1.36-4.2.18,1.63,2.26,4-1.44,4.11Z"/><path class="cls-1" d="M1254.08,269.05c2.05,1.53.56,3.33.63,5-1.08-1.65-.74-3.38-.53-5.12Z"/><path class="cls-1" d="M912.53,284.65c1.13-.16.54-2.19,2.08-1.91l-.11-.09a4.84,4.84,0,0,1-1.35,4.29c-1.1-.6-.53-1.56-.53-2.39Z"/><path class="cls-1" d="M242.47,270.74c1.89-1.13,3.26-.74,5.13-.38C245.71,271.48,244.34,271.09,242.47,270.74Z"/><path class="cls-1" d="M1126.77,265.27a7.79,7.79,0,0,1,.33-4.32c1.07,1.51.6,2.94.52,4.33l.1-.09h-1Z"/><path class="cls-1" d="M1313.23,268.72c.83,2.41.79,3.39-.72,4.06Z"/><path class="cls-1" d="M269.77,270.31c-1.48,1.25-2.62.6-4.27.74C267.12,269.45,268.26,270.1,269.77,270.31Z"/><path class="cls-1" d="M1267,273.69c.28-1,.56-2,1-3.66C1268.74,271.84,1269,272.92,1267,273.69Z"/><path class="cls-1" d="M1072.68,274c-1.87-1.43-.82-3.31-.8-5l-.1.09c1.81,1.43.8,3.31.8,5Z"/><path class="cls-1" d="M1153.66,275.77v3.72c-1.53-1.54-2.62-2.67.09-3.63Z"/><path class="cls-1" d="M1198.06,254.56c-.16,1.67,1,3.59-.92,4.93l.11.1c.08-1.68-1.13-3.6.9-4.93Z"/><path class="cls-1" d="M1201.12,259.31c-2.25-1.16-.76-3.14-1-4.74l-.09.1c2.07,1.2.73,3.15,1,4.73Z"/><path class="cls-1" d="M328.91,271.08c3.75.27,1.61,1.46.69,2.9a3.33,3.33,0,0,1-.6-3Z"/><path class="cls-1" d="M518,286.43c.07,1.39.55,2.83-.43,4.18-1-1.36-.49-2.8-.42-4.19l-.09.1h1Z"/><path class="cls-1" d="M525.68,286.43c.06,1.39.55,2.83-.43,4.18-1-1.36-.5-2.8-.42-4.19l-.09.1h1Z"/><path class="cls-1" d="M543,268v4.88c-1.09-2.18-1.64-3.56.1-4.78Z"/><path class="cls-1" d="M515.1,273c-1.86-1.42-.82-3.31-.8-5l-.1.09c1.82,1.43.8,3.32.8,5Z"/><path class="cls-1" d="M1201,259.4c1.85,1.09.9,2.59.71,5a7.39,7.39,0,0,1-.61-5.07Z"/><path class="cls-1" d="M1089.23,284.68c0-1.71-1.08-3.61.83-5l-.11-.09c0,1.71,1,3.6-.83,5Z"/><path class="cls-1" d="M1318.21,274.2c-.53-1.83-.94-2.89.76-3.08C1320.38,272.37,1319,272.82,1318.21,274.2Z"/><path class="cls-1" d="M527.79,272.14v-4.88c1.08,2.18,1.63,3.55-.11,4.78Z"/><path class="cls-1" d="M1200.07,254.57h-2l.09.1a2,2,0,0,1,1.43-2.62c.83.77.48,1.72.4,2.63Z"/><path class="cls-1" d="M471.84,272.14a7.45,7.45,0,0,1,.23-4.42c.85,1.72,1.4,3.09-.34,4.32Z"/><path class="cls-1" d="M376.15,267.21c2.07,1,.89,2.5.92,5a7.69,7.69,0,0,1-.83-5Z"/><path class="cls-1" d="M374.24,267.11c-.16,1.67,1,3.58-.92,4.92l.11.1c.09-1.68-1.14-3.6.91-4.93Z"/><path class="cls-1" d="M426.5,277c0-1.72-1.07-3.61.84-5l-.11-.09c0,1.71,1,3.6-.83,5Z"/><path class="cls-1" d="M1271.46,266.13c1.8,1.47.84,3.35.74,5.1l.1-.09c-1.72-1.49-.8-3.35-.73-5.1A.87.87,0,0,0,1271.46,266.13Z"/><path class="cls-1" d="M1171.18,276a5.37,5.37,0,0,1,.52-4c1.37,1.85,1,3-.62,3.94Z"/><path class="cls-1" d="M1037,278.69c1.86,1.43.82,3.31.8,5l.1-.09c-1.82-1.43-.8-3.31-.8-5Z"/><path class="cls-1" d="M476.54,266.23c-1.85-.8-.67-2.52-1.31-3.69,2.1.79,1.23,2.4,1.21,3.78Z"/><path class="cls-1" d="M1238.56,272.92a3.2,3.2,0,0,1-.42,2.77c-1.31-1.25-3.2-2.41.52-2.68Z"/><path class="cls-1" d="M368.62,271.17a7.42,7.42,0,0,1,.23-4.41c.85,1.71,1.41,3.09-.34,4.32Z"/><path class="cls-1" d="M1359.84,274.24c.74,0,1,.23.85,1.12Z"/><path class="cls-1" d="M911.58,278.79c-1.85-1.08-.9-2.58-.71-5a7.39,7.39,0,0,1,.61,5.07Z"/><path class="cls-1" d="M915.33,277.63c0,1.71,1.07,3.61-.83,5l.1.1c0-1.71-1-3.61.84-5Z"/><path class="cls-1" d="M1335.88,274.94v2.37C1333.13,276.56,1335.45,275.56,1335.88,274.94Z"/><path class="cls-1" d="M1046.63,268.19c-1.86-1.43-.82-3.31-.8-5l-.1.09c1.82,1.43.8,3.31.8,5Z"/><path class="cls-1" d="M1308.5,280.17c-.76-1.46-.51-2.92-.17-4.89,1.09,2,1,3.38.08,4.79Z"/><path class="cls-1" d="M406.1,269.15c-1.85-1.09-.9-2.59-.71-5a7.38,7.38,0,0,1,.61,5.07Z"/><path class="cls-1" d="M374.34,267.2a2,2,0,0,1,1.42-2.62c.83.78.48,1.73.39,2.63l.09-.09h-2Z"/><path class="cls-1" d="M312.93,273.67c-.67-1.12-.6-2,.67-2.94C315,272.37,314.18,273.06,312.93,273.67Z"/></g></g></svg>